<svg width="21" height="16" viewBox="0 0 21 16" fill="none" xmlns="http://www.w3.org/2000/svg">
<path d="M13.2497 15.1707C12.9955 15.1707 12.7385 15.1212 12.4928 15.0195C11.7572 14.7151 11.2819 14.0066 11.2819 13.2147V11.5337C11.2819 11.1022 11.6316 10.7523 12.0632 10.7523C12.4947 10.7523 12.8446 11.1022 12.8446 11.5337V13.2147C12.8446 13.4487 13.0165 13.545 13.0904 13.5757C13.1656 13.6068 13.3588 13.661 13.5272 13.4924L18.7094 8.30375C19.0148 7.99811 19.0148 7.50082 18.7094 7.19519L13.5272 2.00672C13.3588 1.83811 13.1656 1.89213 13.0905 1.92326C13.0165 1.95393 12.8446 2.05036 12.8446 2.28444V7.0072C12.8446 7.86887 12.1436 8.56986 11.2819 8.56986H1.28125C0.849733 8.56986 0.5 8.22013 0.5 7.78861C0.5 7.35709 0.849733 7.0072 1.28125 7.0072H11.2819V2.28444C11.2819 1.4925 11.7572 0.78388 12.4928 0.479466C13.2311 0.173984 14.0711 0.34 14.6327 0.902441L19.815 6.09091C20.7283 7.00552 20.7283 8.49357 19.815 9.40818L14.6327 14.5966C14.258 14.9719 13.7593 15.1705 13.2497 15.1707Z" fill="white"/>
</svg>
