<svg width="11" height="8" viewBox="0 0 11 8" fill="none" xmlns="http://www.w3.org/2000/svg">
<path d="M10.1263 1.05802L9.24157 0.180619C9.12026 0.0602215 8.97272 0 8.7993 0C8.62572 0 8.47819 0.0602215 8.35688 0.180619L4.08929 4.41933L2.1767 2.51608C2.05525 2.39564 1.90781 2.33549 1.73439 2.33549C1.56085 2.33549 1.41341 2.39564 1.29196 2.51608L0.407245 3.39351C0.285798 3.51393 0.225098 3.6602 0.225098 3.83228C0.225098 4.00422 0.285798 4.15063 0.407245 4.27103L3.64693 7.48383C3.76831 7.60431 3.9158 7.66447 4.08929 7.66447C4.26271 7.66447 4.4102 7.60416 4.53165 7.48383L10.1263 1.93549C10.2476 1.81505 10.3084 1.6688 10.3084 1.49672C10.3085 1.32474 10.2476 1.17847 10.1263 1.05802Z" fill="#E10000"/>
</svg>
