<svg width="24" height="18" viewBox="0 0 24 18" fill="none" xmlns="http://www.w3.org/2000/svg">
<path d="M20.7652 0H2.89245C1.29702 0 0.00012207 1.2969 0.00012207 2.89233V15.1077C0.00012207 16.7031 1.29702 18 2.89245 18H20.7603C22.3558 18 23.6527 16.7031 23.6527 15.1077V2.89723C23.6575 1.30179 22.3606 0 20.7652 0ZM22.3362 15.1077C22.3362 15.9739 21.6314 16.6786 20.7652 16.6786H2.89245C2.02622 16.6786 1.32149 15.9739 1.32149 15.1077V2.89723C1.32149 2.03099 2.02622 1.32626 2.89245 1.32626H20.7603C21.6266 1.32626 22.3313 2.03099 22.3313 2.89723V15.1077H22.3362Z" fill="#828282"/>
<path d="M14.9169 8.84829L20.7016 3.66069C20.9708 3.41599 20.9952 3 20.7505 2.72594C20.5058 2.45677 20.0898 2.4323 19.8158 2.677L11.8386 9.83687L10.2823 8.44698C10.2774 8.44209 10.2726 8.43719 10.2726 8.4323C10.2383 8.39804 10.204 8.36868 10.1649 8.33931L3.8321 2.6721C3.55803 2.42741 3.14205 2.45188 2.89735 2.72594C2.65265 3 2.67712 3.41599 2.95118 3.66069L8.80436 8.89233L2.97565 14.3491C2.71138 14.5987 2.6967 15.0147 2.94629 15.2838C3.07843 15.4209 3.25461 15.4943 3.43079 15.4943C3.59229 15.4943 3.75379 15.4356 3.88104 15.3181L9.79784 9.78303L11.4031 11.217C11.5303 11.3295 11.6869 11.3834 11.8435 11.3834C12.0001 11.3834 12.1616 11.3246 12.284 11.2121L13.9332 9.73409L19.8158 15.323C19.943 15.4454 20.1094 15.5041 20.2709 15.5041C20.4471 15.5041 20.6184 15.4356 20.7505 15.2985C21.0001 15.0343 20.9903 14.6134 20.7261 14.3638L14.9169 8.84829Z" fill="#828282"/>
</svg>
