<svg width="13" height="12" viewBox="0 0 13 12" fill="none" xmlns="http://www.w3.org/2000/svg">
<path d="M8.50488 6.00038L12.2482 2.28802C12.6618 1.87784 12.6618 1.21284 12.2482 0.803307L11.7491 0.308402C11.3354 -0.101903 10.6649 -0.101903 10.2519 0.308402L6.50876 4.02064L2.76546 0.307633C2.35187 -0.102544 1.68132 -0.102544 1.26838 0.307633L0.768571 0.802538C0.354975 1.21284 0.354975 1.87784 0.768571 2.28738L4.51252 6.00038L0.769346 9.71262C0.355621 10.1229 0.355621 10.7879 0.769346 11.1975L1.26838 11.6924C1.68197 12.1025 2.35251 12.1025 2.76546 11.6924L6.50876 7.98L10.2519 11.6924C10.6657 12.1025 11.3362 12.1025 11.7491 11.6924L12.2482 11.1975C12.6618 10.7872 12.6618 10.1222 12.2482 9.71262L8.50488 6.00038Z" fill="#E10000"/>
</svg>
