<svg width="20" height="24" viewBox="0 0 20 24" fill="none" xmlns="http://www.w3.org/2000/svg">
<path d="M9.91489 12.6693C9.93924 12.6693 9.96358 12.6693 9.9928 12.6693C10.0025 12.6693 10.0123 12.6693 10.022 12.6693C10.0366 12.6693 10.0561 12.6693 10.0707 12.6693C11.4973 12.645 12.6513 12.1435 13.5034 11.1843C15.378 9.0711 15.0664 5.4485 15.0323 5.1028C14.9106 2.50758 13.6836 1.26596 12.6708 0.68654C11.9161 0.253192 11.0348 0.0194763 10.0512 0H10.0171C10.0123 0 10.0025 0 9.99767 0H9.96845C9.42799 0 8.36653 0.0876435 7.34889 0.667064C6.32638 1.24648 5.0799 2.4881 4.95817 5.1028C4.92409 5.4485 4.61247 9.0711 6.48706 11.1843C7.33428 12.1435 8.48825 12.645 9.91489 12.6693ZM6.25822 5.22452C6.25822 5.20992 6.26308 5.19531 6.26308 5.18557C6.42376 1.69444 8.90212 1.31952 9.96358 1.31952H9.98306C9.9928 1.31952 10.0074 1.31952 10.022 1.31952C11.3367 1.34874 13.5716 1.88433 13.7225 5.18557C13.7225 5.20018 13.7225 5.21478 13.7274 5.22452C13.7323 5.25861 14.0731 8.56958 12.5247 10.3127C11.9112 11.0041 11.0932 11.345 10.0171 11.3547C10.0074 11.3547 10.0025 11.3547 9.9928 11.3547C9.98306 11.3547 9.97819 11.3547 9.96845 11.3547C8.89726 11.345 8.07438 11.0041 7.46575 10.3127C5.92225 8.57932 6.25335 5.25374 6.25822 5.22452Z" fill="#828282"/>
<path d="M19.9988 18.6778C19.9988 18.6729 19.9988 18.6681 19.9988 18.6632C19.9988 18.6242 19.9939 18.5853 19.9939 18.5415C19.9647 17.5774 19.9014 15.323 17.7882 14.6024C17.7736 14.5975 17.7541 14.5926 17.7395 14.5878C15.5436 14.0278 13.7176 12.7619 13.6982 12.7473C13.4012 12.5379 12.9922 12.6109 12.7828 12.9079C12.5734 13.2049 12.6464 13.6139 12.9435 13.8233C13.0262 13.8817 14.9641 15.2305 17.3889 15.8537C18.5234 16.2579 18.65 17.4703 18.6841 18.5804C18.6841 18.6242 18.6841 18.6632 18.689 18.7021C18.6938 19.1404 18.6646 19.8172 18.5867 20.2067C17.7979 20.6546 14.7061 22.203 10.0025 22.203C5.31848 22.203 2.20714 20.6498 1.41348 20.2018C1.33558 19.8123 1.30149 19.1355 1.31123 18.6973C1.31123 18.6583 1.3161 18.6194 1.3161 18.5755C1.35018 17.4654 1.47678 16.253 2.61127 15.8489C5.03608 15.2256 6.97397 13.872 7.05674 13.8184C7.35376 13.6091 7.42679 13.2001 7.21742 12.9031C7.00805 12.606 6.59905 12.533 6.30204 12.7424C6.28256 12.757 4.46639 14.023 2.2607 14.5829C2.24122 14.5878 2.22662 14.5926 2.21201 14.5975C0.0988289 15.323 0.0355309 17.5774 0.00631645 18.5366C0.00631645 18.5804 0.00631634 18.6194 0.00144726 18.6583C0.00144726 18.6632 0.00144726 18.6681 0.00144726 18.6729C-0.00342182 18.9261 -0.0082908 20.2262 0.24977 20.8786C0.298461 21.0052 0.386105 21.1123 0.502963 21.1854C0.649035 21.2827 4.1499 23.5128 10.0074 23.5128C15.8649 23.5128 19.3658 21.2779 19.5119 21.1854C19.6238 21.1123 19.7164 21.0052 19.765 20.8786C20.0085 20.231 20.0036 18.931 19.9988 18.6778Z" fill="#828282"/>
</svg>
