<svg width="18" height="11" viewBox="0 0 18 11" fill="none" xmlns="http://www.w3.org/2000/svg">
<path d="M9.00008 10.7529C5.3166 10.7529 2.16676 8.28488 0.617018 6.81372C0.224925 6.44155 0 5.91768 0 5.37656C0 4.83535 0.224843 4.31156 0.616937 3.93923C1.20369 3.38233 1.82429 2.86627 2.46148 2.40543C2.73644 2.20654 3.12039 2.26836 3.31904 2.54315C3.51786 2.81803 3.45619 3.20199 3.18132 3.4008C2.58822 3.82974 2.00992 4.31067 1.4627 4.83015C1.31156 4.97364 1.22834 5.16774 1.22842 5.37664C1.22842 5.58546 1.31164 5.77947 1.4627 5.92296C2.87969 7.26812 5.74311 9.52469 9 9.52469C12.2569 9.52469 15.1204 7.26812 16.5373 5.92296C16.6884 5.77947 16.7716 5.58546 16.7716 5.37664C16.7716 5.16774 16.6884 4.97364 16.5372 4.83015C15.1203 3.48499 12.2569 1.22842 8.99992 1.22842C7.83674 1.22842 6.61889 1.52005 5.3803 2.09534C5.07248 2.23851 4.70739 2.10461 4.56455 1.79704C4.4217 1.48938 4.55519 1.12413 4.86285 0.981289C6.26479 0.330187 7.65663 0 8.99992 0C12.6834 0 15.8332 2.46807 17.383 3.93923C17.7752 4.31156 18 4.83543 18 5.37656C18 5.91776 17.7752 6.44155 17.383 6.81372C15.8334 8.28488 12.6836 10.7529 9.00008 10.7529Z" fill="#B2B2B2"/>
<path d="M9.00009 8.464C7.29758 8.464 5.91256 7.07899 5.91256 5.37639C5.91256 3.67396 7.29758 2.28886 9.00009 2.28886C10.7026 2.28886 12.0876 3.67388 12.0876 5.37639C12.0876 7.07899 10.7026 8.464 9.00009 8.464ZM9.00009 3.51729C7.97495 3.51729 7.1409 4.35134 7.1409 5.37639C7.1409 6.40153 7.97495 7.23558 9.00009 7.23558C10.0252 7.23558 10.8593 6.40153 10.8593 5.37639C10.8593 4.35134 10.0252 3.51729 9.00009 3.51729Z" fill="#B2B2B2"/>
</svg>
