<svg width="16" height="19" viewBox="0 0 16 19" fill="none" xmlns="http://www.w3.org/2000/svg">
<path d="M7.93182 10.1355C7.95129 10.1355 7.97077 10.1355 7.99414 10.1355C8.00193 10.1355 8.00972 10.1355 8.01751 10.1355C8.0292 10.1355 8.04478 10.1355 8.05647 10.1355C9.19778 10.116 10.121 9.71479 10.8026 8.94742C12.3023 7.25688 12.053 4.3588 12.0257 4.08224C11.9284 2.00606 10.9468 1.01277 10.1365 0.549232C9.53277 0.202554 8.82773 0.0155811 8.04088 0H8.01362C8.00972 0 8.00193 0 7.99804 0H7.97467C7.54229 0 6.69312 0.0701148 5.87901 0.533651C5.06101 0.997188 4.06382 1.99048 3.96644 4.08224C3.93917 4.3588 3.68988 7.25688 5.18955 8.94742C5.86733 9.71479 6.7905 10.116 7.93182 10.1355ZM5.00647 4.17962C5.00647 4.16793 5.01037 4.15625 5.01037 4.14846C5.13891 1.35555 7.1216 1.05562 7.97077 1.05562H7.98635C7.99414 1.05562 8.00583 1.05562 8.01751 1.05562C9.06923 1.07899 10.8572 1.50747 10.9779 4.14846C10.9779 4.16014 10.9779 4.17183 10.9818 4.17962C10.9857 4.20689 11.2584 6.85567 10.0197 8.25017C9.52888 8.8033 8.87447 9.07596 8.01362 9.08376C8.00583 9.08376 8.00193 9.08376 7.99414 9.08376C7.98635 9.08376 7.98246 9.08376 7.97467 9.08376C7.11771 9.07596 6.45941 8.8033 5.9725 8.25017C4.7377 6.86346 5.00258 4.20299 5.00647 4.17962Z" fill="#B2B2B2"/>
<path d="M15.9989 14.9422C15.9989 14.9383 15.9989 14.9344 15.9989 14.9305C15.9989 14.8994 15.995 14.8682 15.995 14.8332C15.9716 14.0619 15.921 12.2584 14.2305 11.6819C14.2188 11.678 14.2032 11.6741 14.1915 11.6702C12.4347 11.2223 10.974 10.2095 10.9584 10.1978C10.7208 10.0303 10.3936 10.0887 10.2261 10.3263C10.0586 10.564 10.1171 10.8912 10.3547 11.0587C10.4209 11.1054 11.9712 12.1844 13.911 12.683C14.8186 13.0063 14.9199 13.9762 14.9472 14.8643C14.9472 14.8994 14.9472 14.9305 14.9511 14.9617C14.955 15.3123 14.9316 15.8537 14.8693 16.1653C14.2382 16.5237 11.7648 17.7624 8.00193 17.7624C4.25469 17.7624 1.76561 16.5198 1.13069 16.1614C1.06836 15.8498 1.0411 15.3084 1.04889 14.9578C1.04889 14.9267 1.05278 14.8955 1.05278 14.8604C1.08005 13.9723 1.18133 13.0024 2.08892 12.6791C4.02876 12.1805 5.57908 11.0976 5.6453 11.0548C5.88291 10.8873 5.94134 10.5601 5.77384 10.3224C5.60635 10.0848 5.27914 10.0264 5.04153 10.1939C5.02595 10.2056 3.57302 11.2184 1.80846 11.6663C1.79288 11.6702 1.7812 11.6741 1.76951 11.678C0.0789655 12.2584 0.0283271 14.0619 0.00495551 14.8293C0.00495551 14.8643 0.00495542 14.8955 0.00106015 14.9267C0.00106015 14.9305 0.00106015 14.9344 0.00106015 14.9383C-0.00283511 15.1409 -0.00673029 16.1809 0.199719 16.7029C0.238671 16.8042 0.308786 16.8899 0.402272 16.9483C0.51913 17.0262 3.31983 18.8102 8.00583 18.8102C12.6918 18.8102 15.4925 17.0223 15.6094 16.9483C15.699 16.8899 15.773 16.8042 15.8119 16.7029C16.0067 16.1848 16.0028 15.1448 15.9989 14.9422Z" fill="#B2B2B2"/>
</svg>
