<svg width="60" height="60" viewBox="0 0 60 60" fill="none" xmlns="http://www.w3.org/2000/svg">
<path d="M30 0C46.557 0 60 13.443 60 30C60 46.557 46.557 60 30 60C13.443 60 0 46.557 0 30C0 13.443 13.443 0 30 0Z" fill="#56C76D"/>
<path d="M30 0.0270996C46.5421 0.0270996 59.9729 13.458 59.9729 30C59.9729 46.5421 46.5421 59.9729 30 59.9729C13.458 59.9729 0.0270996 46.5421 0.0270996 30C0.0270996 13.458 13.458 0.0270996 30 0.0270996Z" fill="#38BB55"/>
<path d="M30.0002 0.0561523C46.5263 0.0561523 59.9441 13.474 59.9441 30C59.9441 46.526 46.5263 59.9438 30.0002 59.9438C13.4742 59.9438 0.0563965 46.526 0.0563965 30C0.0563965 13.474 13.4742 0.0561523 30.0002 0.0561523Z" fill="#20AB43"/>
<path d="M44.4581 22.1741L41.8259 19.5419C41.4649 19.1807 41.026 19 40.51 19C39.9936 19 39.5546 19.1807 39.1937 19.5419L26.4968 32.258L20.8064 26.5483C20.4451 26.1869 20.0064 26.0065 19.4904 26.0065C18.9741 26.0065 18.5355 26.1869 18.1741 26.5483L15.5419 29.1805C15.1806 29.5418 15 29.9806 15 30.4968C15 31.0127 15.1806 31.4519 15.5419 31.8131L25.1807 41.4515C25.5418 41.8129 25.9806 41.9934 26.4968 41.9934C27.0127 41.9934 27.4515 41.8125 27.8129 41.4515L44.4581 24.8065C44.8191 24.4452 45 24.0064 45 23.4902C45.0003 22.9742 44.8191 22.5354 44.4581 22.1741Z" fill="white"/>
</svg>
