<svg width="60" height="60" viewBox="0 0 60 60" fill="none" xmlns="http://www.w3.org/2000/svg">
<path d="M58.9414 32.4382C57.802 30.9885 55.9937 30.3336 54.265 30.607C52.6889 28.8452 50.0596 28.4332 48.0127 29.6707L47.6643 29.8728C46.0702 28.4295 43.665 28.1605 41.7761 29.3005L31.4992 35.2606L28.0134 34.8251L32.8799 31.3382C34.1746 30.4113 34.9477 28.9065 34.9477 27.3129C34.9477 26.9827 34.9142 26.6498 34.8479 26.3228C34.3086 23.6799 31.8044 21.9721 29.1474 22.4333L28.0963 22.6161C23.8077 23.362 19.8065 24.9786 16.2037 27.4209C15.8019 27.6933 15.697 28.2398 15.9694 28.6417C16.2417 29.0435 16.7882 29.1484 17.1901 28.8761C20.5854 26.5744 24.356 25.0509 28.3975 24.3481L29.4486 24.1652C31.1626 23.8672 32.7778 24.9694 33.1253 26.6732C33.1682 26.8845 33.1899 27.0997 33.1899 27.313C33.1899 28.3409 32.6916 29.3114 31.8566 29.9091L25.164 34.7044C24.8699 34.9151 24.735 35.2846 24.824 35.6352C24.9131 35.9858 25.2079 36.2461 25.5669 36.291L43.5094 38.5327C43.7059 38.5575 43.9049 38.5148 44.074 38.4122L53.3869 32.7649C54.7672 31.9278 56.561 32.2544 57.559 33.5242C58.0058 34.0932 58.2421 34.7761 58.2421 35.4985C58.2421 36.2921 57.9492 37.0535 57.4174 37.6424L48.9226 47.0513C48.1142 47.9466 47.0099 48.5238 45.8135 48.6764L20.6051 51.8858L19.8521 50.5769L10.3532 34.0638L14.4141 30.9443C14.799 30.6486 14.8713 30.0968 14.5757 29.7118C14.2801 29.327 13.7282 29.2546 13.3432 29.5502L8.70399 33.114L0.405611 38.4185C0.0101042 38.6714 -0.116927 39.1903 0.117213 39.5973L11.0449 58.5943C11.1647 58.8025 11.3645 58.9526 11.5978 59.0097C11.6667 59.0266 11.7369 59.0349 11.8068 59.0349C11.973 59.0349 12.1376 58.9877 12.2802 58.8965L20.4437 53.6784L46.0359 50.4199C47.6489 50.2142 49.1374 49.4361 50.2274 48.2292L58.7222 38.8203C59.5462 37.9079 60 36.7281 60 35.4984C60 34.3944 59.6241 33.3077 58.9414 32.4382ZM42.6651 30.817C42.67 30.8142 42.6748 30.8114 42.6796 30.8085C43.7276 30.1734 45.0231 30.2118 46.0203 30.8264L37.1565 35.9675L34.3821 35.6209L42.6651 30.817ZM43.424 36.7506L40.039 36.3276L48.9018 31.1871C48.9068 31.1842 48.9119 31.1812 48.9169 31.1782C50.0244 30.5059 51.3976 30.5836 52.4146 31.2987L43.424 36.7506ZM12.1093 56.9194L2.05912 39.4477L8.90485 35.072L18.3896 51.5597L18.9555 52.5434L12.1093 56.9194Z" fill="#E10000"/>
<path d="M13.6349 49.0163C12.1619 49.0163 10.9634 50.2148 10.9634 51.6878C10.9634 53.1609 12.1619 54.3593 13.6349 54.3593C15.1079 54.3593 16.3064 53.1609 16.3064 51.6878C16.3064 50.2148 15.1079 49.0163 13.6349 49.0163ZM13.6349 52.6015C13.1311 52.6015 12.7212 52.1916 12.7212 51.6878C12.7212 51.184 13.1311 50.7741 13.6349 50.7741C14.1387 50.7741 14.5486 51.184 14.5486 51.6878C14.5486 52.1916 14.1387 52.6015 13.6349 52.6015Z" fill="#E10000"/>
<path d="M27.0327 13.832C27.4087 14.1982 27.58 14.7254 27.491 15.2429L27.0445 17.8478C26.827 19.1144 27.3376 20.3706 28.3772 21.1258C28.9646 21.5526 29.6517 21.7694 30.3438 21.7694C30.8764 21.7694 31.412 21.6409 31.9066 21.3808L34.2482 20.1507C34.7116 19.9063 35.265 19.906 35.7297 20.1514L38.0696 21.3806C39.2068 21.9786 40.5588 21.8811 41.598 21.1265C42.6378 20.3715 43.1489 19.1152 42.9321 17.848L42.4855 15.2422C42.3965 14.7254 42.5676 14.1979 42.9427 13.8319L44.837 11.987C45.7571 11.0896 46.0818 9.77295 45.6845 8.55092C45.2872 7.32936 44.2508 6.45596 42.98 6.27151L42.1023 6.14377C41.6213 6.07381 41.1758 6.40662 41.1059 6.88698C41.0361 7.36733 41.3688 7.81334 41.8491 7.8833L42.7273 8.01104C43.3406 8.09998 43.8212 8.50498 44.0129 9.09444C44.2047 9.68436 44.054 10.2951 43.6101 10.728L41.7157 12.5731C40.9258 13.344 40.5659 14.4533 40.7531 15.5397L41.1996 18.1446C41.3043 18.7565 41.0671 19.3395 40.5652 19.7041C40.0638 20.0683 39.4368 20.1135 38.8876 19.8246L36.5488 18.596C35.5718 18.0805 34.4052 18.0804 33.4295 18.5953L31.0888 19.8248C30.5395 20.1136 29.9121 20.0685 29.4104 19.7038C28.9087 19.3393 28.672 18.7567 28.777 18.1449L29.2234 15.5406C29.4107 14.4527 29.0503 13.3432 28.2593 12.5728L26.3669 10.7285C25.9227 10.2953 25.772 9.68436 25.9638 9.09455C26.1555 8.5051 26.6361 8.1001 27.2498 8.01104L29.8666 7.63018C30.9588 7.47127 31.9019 6.78573 32.3891 5.79725L33.5602 3.42561C33.8339 2.86991 34.3675 2.53815 34.9878 2.53815C35.6081 2.53815 36.1423 2.87014 36.4169 3.42655L37.5875 5.79702C37.7074 6.03995 37.8559 6.26705 38.0287 6.4719C38.3417 6.84291 38.8962 6.88967 39.2673 6.57666C39.6383 6.26366 39.6852 5.70913 39.372 5.33811C39.2909 5.24202 39.2209 5.13479 39.1638 5.01901L37.9931 2.64842C37.4243 1.49612 36.2728 0.780457 34.9878 0.780457C33.702 0.780457 32.5508 1.49659 31.9837 2.64831L30.8127 5.01959C30.5811 5.48952 30.1329 5.81518 29.6135 5.89077L26.9972 6.27163C25.7259 6.45608 24.6895 7.32948 24.2922 8.55104C23.8949 9.77307 24.2196 11.0897 25.14 11.9873L27.0327 13.832Z" fill="#E10000"/>
<path d="M16.5743 5.18193L18.8745 6.30751C19.2196 6.47638 19.5872 6.55665 19.9504 6.55665C20.806 6.55665 21.637 6.11075 22.0895 5.32689L22.2075 5.12239C22.8522 4.00583 22.5192 2.56736 21.4492 1.84783L19.3245 0.418725C18.7604 0.0393896 18.057 -0.0903369 17.3947 0.0629442C16.7323 0.216343 16.1575 0.64185 15.8175 1.23072L15.5243 1.73861C15.1845 2.32736 15.1032 3.03786 15.3016 3.68814C15.4999 4.33864 15.9637 4.88298 16.5743 5.18193ZM17.0466 2.61763L17.3398 2.10974C17.4385 1.93876 17.5988 1.82005 17.7912 1.77552C17.8449 1.7631 17.8988 1.75701 17.9524 1.75701C18.0905 1.75701 18.2254 1.7979 18.3434 1.87736L20.4684 3.30646C20.7745 3.51236 20.8699 3.92404 20.6854 4.24361L20.5674 4.4481C20.3828 4.76767 19.9788 4.89095 19.6474 4.72876L17.3472 3.60318C17.1699 3.51634 17.0405 3.36458 16.983 3.17579C16.9254 2.987 16.9478 2.78861 17.0466 2.61763Z" fill="#E10000"/>
<path d="M53.4015 19.5446L51.1014 18.419C49.9432 17.8525 48.5311 18.283 47.8865 19.3995L47.7685 19.6039C47.7685 19.6039 47.7685 19.604 47.7683 19.604C47.1238 20.7205 47.4569 22.1589 48.5267 22.8784L50.6515 24.3076C51.0603 24.5826 51.5422 24.7264 52.0286 24.7264C52.2135 24.7264 52.399 24.7056 52.5813 24.6633C53.2437 24.5099 53.8185 24.0843 54.1585 23.4955L54.4517 22.9876C54.7916 22.3989 54.8728 21.6883 54.6744 21.038C54.4762 20.3877 54.0122 19.8434 53.4015 19.5446ZM52.9293 22.1087L52.6361 22.6166C52.5374 22.7876 52.3771 22.9063 52.1848 22.9508C51.9926 22.9953 51.7964 22.9592 51.6325 22.849L49.5076 21.4198C49.2015 21.2139 49.1062 20.8023 49.2905 20.4828L49.4086 20.2783C49.5932 19.9587 49.9972 19.8354 50.3287 19.9976L52.6288 21.1232C52.8061 21.2099 52.9355 21.3617 52.993 21.5505C53.0507 21.7396 53.0281 21.9378 52.9293 22.1087Z" fill="#E10000"/>
<path d="M13.5382 14.4563C13.9944 14.8823 14.5997 15.1189 15.2206 15.1189C15.276 15.1189 15.3318 15.117 15.3873 15.1131L17.942 14.9378C19.2285 14.8497 20.2361 13.7705 20.2361 12.4811V12.2451C20.2361 10.9558 19.2284 9.87659 17.942 9.78835L15.3872 9.61316C14.7086 9.56593 14.0349 9.80605 13.538 10.27C13.0411 10.7339 12.7561 11.39 12.7561 12.0698V12.6563C12.7563 13.3363 13.0413 13.9923 13.5382 14.4563ZM14.5141 12.0699C14.5141 11.8724 14.5936 11.6896 14.7379 11.5548C14.8699 11.4316 15.0386 11.3651 15.2173 11.3651C15.2338 11.3651 15.2504 11.3657 15.2671 11.3669L17.8219 11.5421C18.19 11.5673 18.4784 11.8762 18.4784 12.2452V12.4812C18.4784 12.8501 18.1901 13.159 17.8219 13.1842L15.2671 13.3595C15.0694 13.3729 14.8821 13.3062 14.7379 13.1716C14.5936 13.0368 14.5141 12.854 14.5141 12.6565V12.0699Z" fill="#E10000"/>
<path d="M54.589 9.61334L52.0342 9.78854C50.7478 9.87678 49.7402 10.956 49.7402 12.2453V12.4813C49.7402 13.7707 50.7479 14.8497 52.0342 14.938L54.589 15.1133C54.6446 15.1172 54.7003 15.119 54.7557 15.119C55.3766 15.119 55.9819 14.8823 56.4381 14.4565C56.935 13.9925 57.22 13.3365 57.22 12.6567V12.0702C57.22 11.3904 56.935 10.7344 56.4381 10.2704C55.9412 9.80623 55.2676 9.5667 54.589 9.61334ZM55.2384 11.5549C55.3827 11.6897 55.4621 11.8725 55.4621 12.0699V12.6565C55.4621 12.8539 55.3827 13.0367 55.2384 13.1715C55.0942 13.3063 54.9067 13.3734 54.7092 13.3595L52.1543 13.1842C51.7862 13.159 51.4979 12.8501 51.4979 12.4812V12.2451C51.4979 11.8761 51.7862 11.5673 52.1544 11.542L54.7092 11.3668C54.726 11.3656 54.7425 11.3651 54.759 11.3651C54.9377 11.3653 55.1064 11.4316 55.2384 11.5549Z" fill="#E10000"/>
<path d="M18.8746 18.4187L16.5744 19.5443C15.9639 19.8431 15.4999 20.3875 15.3015 21.0377C15.1033 21.688 15.1844 22.3986 15.5243 22.9874L15.8176 23.4954C16.1576 24.0841 16.7324 24.5098 17.3948 24.6632C17.5772 24.7053 17.7627 24.7262 17.9475 24.7262C18.434 24.7262 18.9158 24.5824 19.3245 24.3075L21.4494 22.8783C22.5194 22.1587 22.8524 20.7204 22.2076 19.6036L22.0896 19.3992V19.3993C21.4449 18.2828 20.0329 17.8521 18.8746 18.4187ZM20.4683 21.4198L18.3434 22.849C18.1796 22.959 17.9834 22.9951 17.7912 22.9508C17.5988 22.9063 17.4386 22.7876 17.3399 22.6167L17.0466 22.1087C16.9479 21.9377 16.9253 21.7396 16.9828 21.5508C17.0405 21.362 17.1698 21.2102 17.3471 21.1235L19.6472 19.9979C19.7459 19.9495 19.8511 19.9267 19.9549 19.9267C20.1999 19.9267 20.4376 20.0543 20.5671 20.2786V20.2787L20.6851 20.483C20.8698 20.8022 20.7744 21.2139 20.4683 21.4198Z" fill="#E10000"/>
<path d="M47.8863 5.32693C48.3389 6.11091 49.1697 6.55681 50.0254 6.55669C50.3886 6.55669 50.7562 6.4763 51.1013 6.30755L53.4015 5.18185C54.0122 4.88302 54.4761 4.33869 54.6744 3.6883C54.8727 3.03802 54.7915 2.32752 54.4516 1.73877L54.1583 1.23076C53.8183 0.642008 53.2435 0.216384 52.5812 0.0629853C51.9187 -0.0902958 51.2155 0.0391963 50.6513 0.418649L48.5264 1.84787C47.4566 2.56751 47.1235 4.00587 47.7682 5.12243L47.8863 5.32693ZM49.5076 3.3065L51.6326 1.87728C51.7506 1.79783 51.8854 1.75693 52.0236 1.75693C52.0772 1.75693 52.1311 1.76302 52.1847 1.77545C52.377 1.81998 52.5374 1.93869 52.636 2.10955L52.9293 2.61755C53.028 2.78853 53.0506 2.98658 52.9931 3.17548C52.9356 3.36439 52.8062 3.51615 52.6289 3.60287L50.3288 4.72845C49.9977 4.89076 49.5934 4.76747 49.4087 4.44779L49.2907 4.24341C49.1061 3.92408 49.2014 3.5124 49.5076 3.3065Z" fill="#E10000"/>
</svg>
