<svg width="60" height="63" viewBox="0 0 60 63" fill="none" xmlns="http://www.w3.org/2000/svg">
<path d="M59.4209 51.8645L57.4078 49.851C57.0499 49.493 56.4695 49.493 56.1116 49.851C55.7536 50.2089 55.7536 50.7888 56.1116 51.1467L58.1252 53.1603C58.14 53.1756 58.1858 53.2209 58.1595 53.3021C58.1333 53.3827 58.0698 53.3927 58.0493 53.3956L53.2351 54.1463C52.3837 54.279 51.7226 54.9405 51.59 55.7915L50.8402 60.6037C50.8368 60.6247 50.8268 60.6892 50.7457 60.7154C50.6655 60.7417 50.6211 60.6978 50.6049 60.6811L41.8308 51.907C44.8777 50.008 47.4378 47.3988 49.2781 44.3123L53.4203 48.4554C53.5988 48.6344 53.8336 48.7237 54.0679 48.7237C54.3027 48.7237 54.5371 48.6344 54.7161 48.4554C55.074 48.0975 55.074 47.5171 54.7161 47.1597L50.1873 42.6295C51.6229 39.6742 52.429 36.3591 52.429 32.8589V10.2394C52.429 7.55809 50.2489 5.37698 47.5695 5.37698C47.0836 5.37698 46.6021 5.44953 46.1377 5.59318C45.0438 5.93061 43.9017 6.10147 42.7434 6.10147C39.2493 6.10147 35.9853 4.53843 33.7884 1.81324C32.8597 0.660646 31.4785 -0.000366211 29.9999 -0.000366211C28.5209 -0.000366211 27.1401 0.660646 26.2119 1.81277C24.0145 4.53843 20.7505 6.10147 17.2565 6.10147C16.0981 6.10147 14.9556 5.93061 13.8621 5.59271C13.3978 5.44953 12.9162 5.37698 12.4303 5.37698C9.7505 5.37698 7.57083 7.55809 7.57083 10.2394V20.1608C7.57083 20.6667 7.9808 21.0771 8.48718 21.0771C8.99308 21.0771 9.40353 20.6667 9.40353 20.1608V10.2394C9.40353 8.56893 10.7613 7.20968 12.4303 7.20968C12.7325 7.20968 13.0322 7.25502 13.3219 7.34427C14.5909 7.73563 15.9144 7.93417 17.2565 7.93417C21.3075 7.93417 25.0917 6.12247 27.6389 2.96297C28.2173 2.24421 29.0778 1.83233 29.9999 1.83233C30.9215 1.83233 31.782 2.24421 32.3614 2.96297C34.9081 6.12199 38.6919 7.93417 42.7434 7.93417C44.085 7.93417 45.4089 7.73563 46.678 7.34427C46.9672 7.25502 47.2669 7.20968 47.5695 7.20968C49.2385 7.20968 50.5963 8.56893 50.5963 10.2394V32.8584C50.5963 36.2761 49.7597 39.5019 48.2801 42.3421C48.2644 42.3684 48.2505 42.3956 48.2377 42.4228C44.7341 49.0773 37.7975 53.4553 29.9999 53.4553C26.4166 53.4553 23.0442 52.5351 20.1062 50.9196C20.0976 50.9148 20.0895 50.91 20.0804 50.9052C13.5591 47.3067 9.40353 40.445 9.40353 32.8584V23.8262C9.40353 23.3198 8.99308 22.9098 8.48718 22.9098C7.9808 22.9098 7.57083 23.3198 7.57083 23.8262V32.8584C7.57083 36.3587 8.37693 39.6742 9.81254 42.629L5.24225 47.2007C4.8843 47.5591 4.8843 48.139 5.24225 48.497C5.42122 48.6759 5.65556 48.7652 5.89038 48.7652C6.12471 48.7652 6.35953 48.6759 6.5385 48.497L10.7217 44.3123C12.5621 47.3983 15.1226 50.008 18.169 51.907L9.39493 60.6811C9.37871 60.6978 9.33432 60.7417 9.25414 60.7154C9.17301 60.6887 9.16298 60.6247 9.16012 60.6037L8.40986 55.791C8.27718 54.9405 7.61617 54.279 6.76473 54.1459L1.95103 53.3956C1.93003 53.3927 1.86703 53.3827 1.84078 53.3021C1.81405 53.2209 1.85987 53.1756 1.87467 53.1603L3.94934 51.0856C4.30729 50.7277 4.30729 50.1478 3.94934 49.7899C3.59091 49.4319 3.01103 49.4324 2.65356 49.7899L0.578889 51.8645C0.0510341 52.3924 -0.13319 53.1608 0.0982834 53.87C0.32928 54.5797 0.931111 55.0913 1.66849 55.2068L6.48218 55.9566C6.5428 55.9662 6.58957 56.0129 6.59911 56.0735L7.34938 60.8863C7.4644 61.6241 7.9765 62.2265 8.68572 62.4574C8.88808 62.5238 9.09521 62.5558 9.30044 62.5558C9.81397 62.5558 10.3141 62.3544 10.6912 61.9768L19.8241 52.8439C22.8801 54.406 26.3388 55.288 29.9999 55.288C33.661 55.288 37.1202 54.406 40.1757 52.8439L49.3086 61.9768C49.6862 62.3544 50.1863 62.5558 50.6994 62.5558C50.9046 62.5558 51.1117 62.5238 51.3146 62.4574C52.0238 62.2265 52.5359 61.6241 52.6509 60.8863L53.4012 56.0735C53.4103 56.0129 53.4575 55.9662 53.5176 55.9566L58.3318 55.2064C59.0687 55.0913 59.6705 54.5792 59.902 53.87C60.133 53.1608 59.9488 52.3924 59.4209 51.8645Z" fill="#E10000"/>
<path d="M11.1667 32.8586C11.1667 43.2434 19.6148 51.6915 29.9997 51.6915C40.3955 51.6915 48.8326 43.2329 48.8326 32.8586V23.8263C48.8326 23.3199 48.4222 22.91 47.9163 22.91C47.4099 22.91 46.9999 23.3199 46.9999 23.8263V32.8586C46.9999 35.946 46.1723 38.844 44.7276 41.342L45.2238 41.8372C44.8659 41.4798 44.2855 41.4793 43.928 41.8372C43.5701 42.1952 43.5701 42.7755 43.9276 43.1335L43.7029 42.9089C40.606 47.1207 35.6166 49.8588 29.9997 49.8588C20.6257 49.8588 12.9995 42.2326 12.9995 32.8591V12.2035L13.6606 12.8655C13.8395 13.0445 14.0739 13.1337 14.3087 13.1337C14.543 13.1337 14.7774 13.0445 14.9563 12.8655C15.3143 12.5076 15.3143 11.9272 14.9568 11.5693L14.731 11.3434C15.5633 11.468 16.4071 11.531 17.2562 11.531C22.1725 11.531 26.7791 9.42958 29.9997 5.7427C33.2198 9.42958 37.8264 11.531 42.7432 11.531C44.1864 11.531 45.6149 11.3491 46.9999 10.9902V20.1609C46.9999 20.6668 47.4099 21.0773 47.9163 21.0773C48.4222 21.0773 48.8326 20.6668 48.8326 20.1609V10.24C48.8326 9.83956 48.6403 9.45822 48.3176 9.22054C47.9969 8.98382 47.5779 8.91223 47.1975 9.02964C45.76 9.47302 44.2614 9.69829 42.7432 9.69829C38.1557 9.69829 33.8708 7.64652 30.9876 4.06988C30.7452 3.76873 30.3848 3.59644 29.9997 3.59644C29.614 3.59644 29.2537 3.76873 29.0113 4.06988C26.1281 7.64652 21.8437 9.69829 17.2562 9.69829C15.738 9.69829 14.2394 9.47302 12.8014 9.02964C12.421 8.91223 12.0024 8.98382 11.6812 9.22054C11.5691 9.30311 11.4732 9.40334 11.3949 9.51502C11.3892 9.52313 11.3839 9.53077 11.3787 9.53888C11.2503 9.73074 11.1777 9.95267 11.1677 10.1837C11.1677 10.1889 11.1677 10.1942 11.1672 10.1994V10.208C11.1672 10.2113 11.1667 10.2152 11.1667 10.219V10.2376V10.239V32.8586Z" fill="#E10000"/>
<path d="M35.5274 21.235L27.5241 29.9322L24.4276 26.6753C22.8755 25.0431 20.2849 24.9772 18.6527 26.5293C17.0204 28.0809 16.9546 30.6715 18.5062 32.3042L24.1446 38.2352C25.0313 39.1678 26.278 39.7028 27.5652 39.7028H27.6033C28.9048 39.6918 30.1562 39.1367 31.0368 38.1793L41.5385 26.7665C43.0634 25.1094 42.956 22.5202 41.299 20.9949C39.6414 19.47 37.0522 19.5774 35.5274 21.235ZM40.0581 22.3436C40.9716 23.1846 41.0307 24.6121 40.1903 25.5256L29.688 36.9384C29.1497 37.5241 28.3846 37.8634 27.5962 37.8701H27.5652C26.7777 37.8701 26.0155 37.5427 25.4733 36.9723L19.8349 31.0413C18.9791 30.1412 19.0154 28.7132 19.9155 27.8575C20.3508 27.4437 20.9092 27.239 21.4666 27.239C22.0623 27.239 22.6574 27.4733 23.0994 27.9382L26.8707 31.9052C27.0435 32.0875 27.2836 32.1906 27.5346 32.1906H27.5422C27.7957 32.1882 28.0376 32.0813 28.209 31.8947L36.8761 22.4759C37.7166 21.5624 39.1441 21.5027 40.0581 22.3436Z" fill="#E10000"/>
</svg>
