<svg width="60" height="60" viewBox="0 0 60 60" fill="none" xmlns="http://www.w3.org/2000/svg">
<path d="M59.5366 53.3216L58.6807 52.4655C58.3375 52.1222 57.7809 52.1223 57.4378 52.4654C57.0945 52.8087 57.0945 53.3652 57.4377 53.7083L58.1693 54.44L54.4406 58.1688L48.1015 51.8298L51.8303 48.101L54.7876 51.0583C55.131 51.4015 55.6874 51.4015 56.0306 51.0583C56.3739 50.715 56.3739 50.1586 56.0306 49.8153L52.4534 46.2382C52.4528 46.2376 52.4523 46.237 52.4518 46.2364L49.9659 43.7505C49.9652 43.7498 49.9645 43.7494 49.9638 43.7487L47.77 41.5548C47.4711 41.2558 47.0739 41.0912 46.6512 41.0912C46.2285 41.0912 45.8312 41.2558 45.5325 41.5546L45.4082 41.679L42.2632 38.5332C44.5111 35.7247 46.1346 32.3965 46.9226 28.76H53.1154C53.6009 28.76 53.9943 28.3666 53.9943 27.8811C53.9943 27.3956 53.6009 27.0022 53.1154 27.0022H47.2342C47.3116 26.4432 47.3695 25.8781 47.4071 25.3076H57.3047C57.7902 25.3076 58.1836 24.9142 58.1836 24.4287C58.1836 23.9431 57.7902 23.5498 57.3047 23.5498H47.4591C47.4548 22.981 47.4313 22.416 47.3882 21.855H53.1155C53.601 21.855 53.9944 21.4616 53.9944 20.9761C53.9944 20.4906 53.601 20.0972 53.1155 20.0972H47.1874C46.5734 16.0567 44.9312 12.2771 42.3471 9.01252C42.0458 8.63202 41.4932 8.5678 41.1124 8.86885C40.7319 9.17014 40.6676 9.72292 40.9688 10.1035C44.066 14.0163 45.7031 18.7283 45.7031 23.7301C45.7031 35.8459 35.8462 45.7028 23.7305 45.7028C11.6147 45.7028 1.75781 35.8459 1.75781 23.7301C1.75781 11.6143 11.6147 1.75745 23.7305 1.75745C29.2076 1.75745 34.4544 3.78456 38.5042 7.4653C38.8632 7.79202 39.4194 7.7653 39.7457 7.40612C40.0721 7.04694 40.0457 6.491 39.6864 6.16452C35.3125 2.18905 29.6459 -0.000366211 23.7305 -0.000366211C10.6454 -0.000366211 0 10.6451 0 23.7301C0 35.2827 8.29852 44.9318 19.2472 47.0339V52.9635C19.2472 53.449 19.6406 53.8424 20.1261 53.8424C20.6116 53.8424 21.005 53.449 21.005 52.9635V47.3032C21.5644 47.3674 22.1295 47.4124 22.6998 47.4369V57.0967C22.6998 57.5822 23.0932 57.9756 23.5787 57.9756C24.0642 57.9756 24.4576 57.5822 24.4576 57.0967V47.4484C25.0276 47.4312 25.5929 47.3948 26.1524 47.3379V52.9635C26.1524 53.449 26.5458 53.8424 27.0313 53.8424C27.5168 53.8424 27.9102 53.449 27.9102 52.9635V47.0919C31.8785 46.3839 35.5075 44.6851 38.5337 42.2628L41.6795 45.4079L41.5553 45.5321C41.2563 45.831 41.0917 46.2282 41.0917 46.6509C41.0917 47.0736 41.2563 47.4709 41.555 47.7696L43.7497 49.9642C43.7502 49.9646 43.7505 49.9651 43.751 49.9656L46.2369 52.4515C46.2374 52.4519 46.2381 52.4524 46.2386 52.453L53.3217 59.536C53.6205 59.8351 54.0178 59.9996 54.4405 59.9996C54.8632 59.9996 55.2603 59.8351 55.5593 59.5363L59.5366 55.5589C59.8355 55.26 60 54.8628 60 54.4401C60 54.0174 59.8355 53.6202 59.5366 53.3216ZM41.1118 39.8678L44.165 42.9217L42.9221 44.1646L39.8682 41.1114C40.2979 40.7123 40.7127 40.2975 41.1118 39.8678ZM46.8585 50.5869L45.6155 49.344L49.3443 45.6152L50.5872 46.8582L46.8585 50.5869ZM46.6513 42.922L48.1014 44.3721L44.3726 48.1009L42.9225 46.6508L46.6513 42.922Z" fill="#E10000"/>
<path d="M11.4908 39.819C15.011 42.465 19.2399 43.8917 23.7304 43.9449C34.8769 43.9449 43.9452 34.8766 43.9452 23.7301C43.9452 12.5836 34.8769 3.51526 23.7304 3.51526C18.3511 3.51526 13.2915 5.62077 9.484 9.44389C5.69252 13.2507 3.57295 18.3211 3.51553 23.7207C3.46279 28.6917 5.269 33.4697 8.60135 37.1744C8.92596 37.5353 9.48166 37.5648 9.8426 37.2402C10.2035 36.9156 10.2329 36.3598 9.90834 35.9989C6.87131 32.6225 5.22518 28.2687 5.27334 23.7395C5.32572 18.8008 7.26342 14.1644 10.7295 10.6844C14.2048 7.19483 18.8219 5.27307 23.7304 5.27307C33.9076 5.27307 42.1874 13.5528 42.1874 23.7301C42.1874 33.9074 33.9076 42.1871 23.7408 42.1873C19.637 42.1385 15.7663 40.8336 12.5469 38.4139C12.1592 38.122 11.6079 38.2004 11.3163 38.5884C11.0246 38.9764 11.1027 39.5274 11.4908 39.819Z" fill="#E10000"/>
<path d="M27.0701 8.02698H20.9764C20.2333 8.02698 19.6287 8.63155 19.6287 9.37463V12.4801H13.9451C13.202 12.4801 12.5975 13.0847 12.5975 13.8278V23.2614H11.4211C10.9356 23.2614 10.5422 23.6548 10.5422 24.1403C10.5422 24.6258 10.9356 25.0192 11.4211 25.0192H36.6254C37.1109 25.0192 37.5043 24.6258 37.5043 24.1403C37.5043 23.6548 37.1109 23.2614 36.6254 23.2614H35.449V18.2809C35.449 17.5378 34.8445 16.9332 34.1014 16.9332H28.4178V9.37463C28.4178 8.63155 27.8132 8.02698 27.0701 8.02698ZM14.3553 14.2379H19.6287V23.2614H14.3553V14.2379ZM21.3865 9.78479H26.66V23.2614H21.3865V9.78479ZM33.6912 18.691V23.2614H28.4178V18.691H33.6912Z" fill="#E10000"/>
<path d="M33.8673 32.4668H29.7295L27.8498 27.6618C27.7169 27.3223 27.3914 27.1026 27.0235 27.103C26.6588 27.1063 26.334 27.3345 26.2072 27.6764L23.6385 34.6033L21.8431 29.5146C21.7283 29.1888 21.4332 28.9606 21.0889 28.9313C20.7451 28.9015 20.4153 29.0771 20.2468 29.3785L18.5227 32.4667H14.3959C13.9104 32.4667 13.517 32.8601 13.517 33.3456C13.517 33.8311 13.9104 34.2245 14.3959 34.2245H19.0386C19.3571 34.2245 19.6508 34.0521 19.8061 33.774L20.833 31.9348L22.789 37.4789C22.9121 37.828 23.2406 38.0624 23.6108 38.0654H23.6179C23.9851 38.0654 24.314 37.8369 24.4419 37.492L27.0532 30.4505L28.311 33.6659C28.4428 34.0028 28.7675 34.2246 29.1294 34.2246H33.8673C34.3528 34.2246 34.7462 33.8312 34.7462 33.3457C34.7462 32.8602 34.3528 32.4668 33.8673 32.4668Z" fill="#E10000"/>
</svg>
