<svg width="61" height="62" viewBox="0 0 61 62" fill="none" xmlns="http://www.w3.org/2000/svg">
<path d="M59.8309 44.2939C58.6765 42.5974 56.7183 42.1832 54.591 43.1842L53.4635 43.6806C55.2413 39.8914 55.4619 35.6674 54.5769 31.6775C53.5605 27.095 51.1055 22.6557 47.2802 18.483C46.942 18.114 46.3688 18.0891 45.9996 18.4274C45.6306 18.7656 45.6057 19.3388 45.944 19.708C49.5515 23.643 51.8606 27.8022 52.8072 32.07C53.8043 36.5654 53.2242 41.2015 50.6798 44.9062L39.3977 49.8738L39.407 48.5996C39.4072 48.5675 39.4058 48.5353 39.4025 48.5033C39.142 45.8844 37.1402 43.7979 34.5344 43.4292C34.5266 43.428 34.5189 43.427 34.511 43.4262L24.4836 42.2717C20.6278 41.7228 19.6348 39.4121 14.4127 38.0945C14.0519 35.0329 14.5329 31.7732 15.8511 28.5053C17.8363 23.5838 21.7202 18.8022 27.1044 14.6403C29.1112 16.0632 38.0644 16.2402 40.0679 14.4047C41.0943 15.1842 42.0739 15.9875 42.9865 16.8006C43.1592 16.9546 43.3746 17.0302 43.5891 17.0302C43.8386 17.0302 44.0871 16.9279 44.2661 16.7269C44.5991 16.3531 44.566 15.7802 44.1923 15.4472C43.192 14.5561 42.116 13.6767 40.9874 12.8269C41.2519 11.7055 40.8818 10.393 39.9052 9.61168C42.7431 5.3073 43.5685 2.48996 42.4283 1.01391C41.6452 -5.48104e-05 40.671 0.475806 40.255 0.679107C39.5498 1.02334 39.1653 1.04147 38.5165 0.616981C37.2787 -0.192962 35.9777 -0.219069 34.7 0.616981C34.0429 1.04691 33.5255 1.04691 32.8687 0.616981C31.6307 -0.192962 30.3302 -0.219069 29.0522 0.616981C28.3959 1.04655 28.01 1.01996 27.316 0.674998C26.9004 0.468433 25.9273 -0.0152843 25.1392 0.998805C24.0247 2.43328 24.7703 5.16177 27.4168 9.31978C27.2547 9.40741 27.1002 9.51027 26.956 9.62775C25.9035 8.51624 24.1791 7.35699 21.6853 7.63547C19.6169 7.86694 18.0916 7.18342 17.1762 6.56941C16.7604 6.29093 16.1974 6.40189 15.9186 6.81743C15.6399 7.23322 15.751 7.79623 16.1667 8.07495C17.3336 8.85734 19.2731 9.72832 21.8864 9.4369C23.8131 9.22079 25.1204 10.2054 25.9342 11.2074C25.9231 11.2461 25.9128 11.285 25.9032 11.3239C25.2091 11.3348 24.1717 11.3996 23.0292 11.6372C20.2816 12.2088 18.2421 13.5145 17.131 15.4136C16.8782 15.8456 17.0235 16.4009 17.4555 16.6537C17.8876 16.9065 18.4427 16.7611 18.6955 16.3291C20.3482 13.5045 24.3825 13.1591 25.9848 13.1374C25.9917 13.1574 25.9998 13.1771 26.0071 13.1969C20.289 17.6078 16.3081 22.5268 14.1701 27.8269C12.8188 31.177 12.279 34.5333 12.553 37.7229C11.6839 37.5943 10.8047 37.5253 9.92124 37.5192V36.9711C9.92124 35.5208 8.74132 34.341 7.29102 34.341H3.13023C1.67992 34.341 0.5 35.5209 0.5 36.9711V58.0801C0.5 59.5305 1.67992 60.7103 3.13023 60.7103H7.2909C8.7412 60.7103 9.92112 59.5304 9.92112 58.0801V57.8219L18.9973 61.2001C20.217 61.6539 21.4953 61.8842 22.7967 61.8842H36.3202C38.3878 61.8842 40.4038 61.2992 42.1501 60.1926C60.1908 48.756 59.0953 49.4676 59.1995 49.3752C60.6527 48.0853 60.9242 45.9007 59.8309 44.2939ZM38.367 13.3307C35.0525 14.1676 31.8299 14.1676 28.5147 13.3307C27.0922 12.9711 27.5044 10.4341 29.0331 10.8175C31.999 11.562 34.8825 11.562 37.8486 10.8175C39.3508 10.4404 39.8124 12.9654 38.367 13.3307ZM26.4881 2.28799C26.4953 2.2915 26.5024 2.29512 26.5092 2.29851C27.7359 2.90817 28.8108 2.94129 30.0447 2.13401C31.5889 1.12318 31.7566 2.74391 33.7841 2.74391C34.7603 2.74391 35.299 2.39146 35.6923 2.13401C36.3495 1.70395 36.867 1.7042 37.5241 2.13401C38.7635 2.94504 39.8124 2.90503 41.0747 2.29621C41.2612 2.96848 40.8391 4.97261 38.1515 8.97409C36.8169 8.95137 34.8801 10.2622 29.3972 9.04202C26.7154 4.98881 26.3007 2.96522 26.4881 2.28799ZM58.0452 47.9752L41.1799 58.6621C39.7242 59.5844 38.0438 60.0721 36.3203 60.0721H22.7968C21.712 60.0721 20.6464 59.8802 19.6297 59.5017L9.92112 55.8881V46.1274C9.92112 45.6267 9.51537 45.221 9.01485 45.221C8.51433 45.221 8.10857 45.6267 8.10857 46.1274V58.0806C8.10857 58.5314 7.74174 58.8981 7.29102 58.8981H3.13023C2.67939 58.8981 2.31267 58.5313 2.31267 58.0806V36.9715C2.31267 36.5207 2.67939 36.1541 3.13023 36.1541H7.2909C7.74174 36.1541 8.10845 36.5208 8.10845 36.9715V41.8902C8.10845 42.3908 8.51421 42.7966 9.01473 42.7966C9.51525 42.7966 9.921 42.3908 9.921 41.8902V39.3324C17.4186 39.3898 19.1044 43.3416 24.2411 44.0681C24.2488 44.0693 24.2565 44.0703 24.2643 44.0711L34.2912 45.2256C36.0469 45.479 37.3981 46.8771 37.5937 48.6373L37.5811 50.3614H28.2301C27.7296 50.3614 27.3237 50.7672 27.3237 51.2678C27.3237 51.7684 27.7295 52.1742 28.2301 52.1742H38.4809C38.5953 52.1742 38.7276 52.1488 38.8426 52.0987C38.8611 52.0904 55.3126 44.8471 55.3318 44.8387C56.5176 44.3117 57.5988 44.2364 58.332 45.3138C58.902 46.1511 58.7758 47.283 58.0452 47.9752Z" fill="#E10000"/>
<path d="M33.6797 41.1218C34.1802 41.1218 34.5861 40.716 34.5861 40.2154V38.713C37.1305 38.3001 38.6151 36.2406 38.9381 34.3193C39.3415 31.9192 38.0844 29.8319 35.7354 29.0017C35.3203 28.8549 34.9384 28.7146 34.5859 28.5791V22.8001C35.6582 22.9779 36.3019 23.5328 36.3488 23.5743C36.717 23.9091 37.2868 23.8843 37.6246 23.5181C37.964 23.1502 37.9408 22.5768 37.5729 22.2374C37.5089 22.1784 36.3989 21.1789 34.5859 20.9699V19.681C34.5859 19.1804 34.1802 18.7746 33.6795 18.7746C33.179 18.7746 32.7733 19.1804 32.7733 19.681V21.0432C32.5547 21.085 32.3309 21.1382 32.1009 21.2074C30.5634 21.6705 29.4142 22.9888 29.1015 24.6477C28.8178 26.1532 29.2951 27.6009 30.3471 28.426C30.9511 28.8997 31.7113 29.3333 32.7733 29.797V36.9646C31.7251 36.9203 31.0799 36.7235 29.9544 35.9872C29.5356 35.7133 28.9738 35.8304 28.6997 36.2495C28.4257 36.6683 28.5431 37.2301 28.962 37.5041C30.4416 38.472 31.4307 38.7245 32.7733 38.7767V40.2154C32.7733 40.716 33.179 41.1218 33.6797 41.1218ZM31.4658 26.9997C30.9484 26.5938 30.7249 25.8213 30.8829 24.9835C31.0294 24.2066 31.5635 23.2626 32.6238 22.9432C32.6742 22.928 32.7237 22.915 32.7733 22.9017V27.7975C32.2306 27.5265 31.805 27.2658 31.4658 26.9997ZM35.1313 30.7108C37.3867 31.5079 37.247 33.4444 37.1504 34.0189C36.9505 35.2084 36.0773 36.4783 34.5859 36.8604V30.5143C34.7624 30.5789 34.9426 30.644 35.1313 30.7108Z" fill="#E10000"/>
</svg>
