<svg width="60" height="50" viewBox="0 0 60 50" fill="none" xmlns="http://www.w3.org/2000/svg">
<path d="M59.7861 13.5653L54.4056 1.20526C54.0942 0.490108 53.389 0.0279236 52.609 0.0279236H7.39116C6.61106 0.0279236 5.90587 0.490108 5.59458 1.20526L0.213729 13.5658C-0.180058 14.4706 -0.0209787 15.5406 0.619015 16.2916L28.4979 49.0058C28.8707 49.4434 29.4141 49.6943 29.989 49.6944H29.9894C30.564 49.6944 31.1074 49.4436 31.4804 49.0064L40.854 38.0154C41.1726 37.6418 41.128 37.0807 40.7544 36.762C40.381 36.4434 39.8197 36.488 39.5011 36.8616L32.1183 45.5183L43.7575 15.5812H57.6498L42.1025 33.811C41.7839 34.1845 41.8285 34.7457 42.2021 35.0643C42.5756 35.383 43.1368 35.3384 43.4554 34.9648L59.3803 16.2919C60.0209 15.5408 60.1803 14.4705 59.7861 13.5653ZM57.9504 13.803H44.8962L53.0661 2.58292L57.9504 13.803ZM20.1552 25.3961L28.076 45.7695L2.34981 15.5811H16.3392L18.781 21.8617C18.9178 22.2135 19.2537 22.4289 19.6098 22.4288C19.7169 22.4288 19.8259 22.4092 19.9318 22.3681C20.3893 22.1901 20.6161 21.675 20.4382 21.2173L18.2469 15.581H41.8493L30.0482 45.9351L21.8124 24.7518C21.6345 24.2942 21.1192 24.0674 20.6616 24.2454C20.2041 24.4233 19.9773 24.9385 20.1552 25.3961ZM33.413 1.80601L35.4469 4.83078C35.6186 5.08599 35.8994 5.22385 36.1854 5.22385C36.356 5.22385 36.5285 5.17478 36.6807 5.07248C37.0882 4.79853 37.1963 4.24614 36.9224 3.8386L35.5556 1.80601H51.4322L43.1779 13.1419L39.071 7.03407C38.7971 6.62653 38.2447 6.5183 37.8371 6.79236C37.4297 7.06631 37.3215 7.6187 37.5954 8.02624L41.4797 13.803H18.6166L26.6834 1.80601H33.413ZM16.9185 13.1419L8.66427 1.80601H24.5408L16.9185 13.1419ZM6.97011 2.50018L15.2003 13.803H2.04978L6.97011 2.50018Z" fill="#E10000"/>
<path d="M13.4942 40.6147C13.0598 40.3381 12.522 40.3028 12.0552 40.5207L7.456 42.6671C6.75188 42.9955 6.41262 43.8214 6.68384 44.5468C7.55996 46.8911 9.55355 48.1598 12.6094 48.318C12.635 48.3193 12.6606 48.3201 12.6861 48.3201C13.0688 48.3201 13.4422 48.172 13.7208 47.9075C14.0175 47.6258 14.1877 47.2296 14.1877 46.8208V41.8789C14.1878 41.364 13.9285 40.8913 13.4942 40.6147ZM12.4098 46.5229C9.58722 46.2894 8.75152 44.8917 8.44497 44.1678L12.4098 42.3175V46.5229Z" fill="#E10000"/>
<path d="M11.6464 35.7299C11.7584 35.2273 11.6083 34.7096 11.2445 34.3451L7.65936 30.7524C7.11052 30.2024 6.21863 30.165 5.62902 30.6671C3.72362 32.2895 3.21011 34.5962 4.10259 37.5231C4.22208 37.9152 4.50088 38.2449 4.86752 38.4282C5.0771 38.5329 5.30766 38.5858 5.53869 38.5858C5.71117 38.5858 5.88388 38.5563 6.04817 38.4968L10.6943 36.8129C11.1784 36.6373 11.5344 36.2325 11.6464 35.7299ZM5.72231 36.7236C4.98013 33.9904 6.00929 32.7285 6.58563 32.1936L9.67607 35.2906L5.72231 36.7236Z" fill="#E10000"/>
<path d="M52.6402 42.667L48.0408 40.5207C47.5743 40.3029 47.0363 40.338 46.6019 40.6147C46.1676 40.8912 45.9082 41.3638 45.9082 41.8789V46.8208C45.9082 47.2297 46.0784 47.6259 46.3751 47.9075C46.6537 48.172 47.0271 48.3201 47.4099 48.3201C47.4353 48.3201 47.4609 48.3193 47.4866 48.318C50.5424 48.1599 52.5361 46.8911 53.4122 44.5468C53.6834 43.8214 53.3443 42.9956 52.6402 42.667ZM47.6864 46.5229V42.3174L51.6512 44.1676C51.3446 44.8917 50.5089 46.2892 47.6864 46.5229Z" fill="#E10000"/>
<path d="M54.4671 30.6671C53.8774 30.1649 52.9855 30.2025 52.4367 30.7525L48.8517 34.3452C48.4879 34.7097 48.3377 35.2273 48.4497 35.7299C48.5617 36.2326 48.9177 36.6374 49.4019 36.8129L54.048 38.4968C54.2124 38.5564 54.3851 38.5859 54.5576 38.5859C54.7886 38.5859 55.0192 38.5329 55.2287 38.4283C55.5953 38.245 55.8741 37.9151 55.9937 37.5232C56.886 34.5962 56.3725 32.2896 54.4671 30.6671ZM54.3738 36.7237L50.4201 35.2908L53.5105 32.1938C54.0867 32.7285 55.1159 33.9904 54.3738 36.7237Z" fill="#E10000"/>
</svg>
