<svg width="60" height="60" viewBox="0 0 60 60" fill="none" xmlns="http://www.w3.org/2000/svg">
<path d="M57.4279 26.5541C57.8139 26.2207 58.0597 25.7291 58.0597 25.1802V23.1724C58.0597 22.6235 57.8141 22.1319 57.4279 21.7985L59.6887 18.4072C60.0679 17.8385 60.103 17.111 59.7805 16.5084C59.458 15.9058 58.8331 15.5315 58.1498 15.5315H53.2948C53.2938 15.5315 53.293 15.5315 53.2921 15.5315H47.9931C47.5907 15.5315 47.2075 15.6619 46.8938 15.8941C45.321 11.598 42.5107 7.76208 38.8554 4.965C34.6105 1.71686 29.5346 3.05176e-05 24.1762 3.05176e-05C18.4668 3.05176e-05 12.9253 2.02753 8.5723 5.70915C8.20163 6.02264 8.15534 6.57718 8.46882 6.94785C8.78219 7.3184 9.33673 7.36493 9.70752 7.05133C13.7434 3.63783 18.8819 1.75787 24.1762 1.75787C33.9977 1.75787 42.756 8.25615 45.6173 17.6102L43.1203 21.3558H40.345C38.9948 13.5552 32.1772 7.76571 24.1761 7.76571C15.1274 7.76571 7.76569 15.1274 7.76569 24.1761C7.76569 33.2249 15.1274 40.5866 24.1761 40.5866C32.1771 40.5866 38.9948 34.7971 40.345 26.9965H43.1203L45.6173 30.7423C42.7559 40.0963 33.9976 46.5946 24.1762 46.5946C11.8147 46.5946 1.75784 36.5377 1.75784 24.1762C1.75784 18.7459 3.72428 13.5068 7.29493 9.4243C7.61451 9.0589 7.57736 8.50366 7.21196 8.18408C6.84668 7.86462 6.29132 7.90154 5.97175 8.26705C2.12078 12.6701 0 18.32 0 24.1762C0 30.0249 2.08797 35.3949 5.55725 39.5808L2.25625 51.1152C2.12265 51.5818 2.39278 52.0684 2.85943 52.202C2.94029 52.2251 3.02162 52.2362 3.10166 52.2362C3.48393 52.2362 3.83573 51.9847 3.94612 51.5988L5.42435 46.4336H9.42028L6.05964 58.1767C6.04839 58.2159 6.01206 58.2432 5.97139 58.2432H2.16637C2.155 58.2432 2.12055 58.2432 2.09301 58.2068C2.06547 58.1702 2.07496 58.1371 2.07812 58.1262L2.94216 55.107C3.07576 54.6404 2.80575 54.1538 2.33899 54.0202C1.87269 53.8868 1.38577 54.1566 1.25217 54.6234L0.388132 57.6425C0.226996 58.2059 0.336803 58.7972 0.689426 59.265C1.04228 59.7327 1.58054 60.0011 2.16637 60.0011H5.97139C6.79254 60.0011 7.52381 59.4497 7.74963 58.6603L8.47714 56.1182H20.3851V58.1515C20.3851 59.1714 21.2148 60.0011 22.2347 60.0011H26.1176C27.1375 60.0011 27.9672 59.1714 27.9672 58.1515V56.1182H39.875L40.6028 58.6604C40.8287 59.4498 41.56 60.0011 42.381 60.0011H46.1859C46.7719 60.0011 47.3101 59.7327 47.6629 59.2649C48.0156 58.7971 48.1254 58.2057 47.9643 57.6425L42.7966 39.5857C44.5534 37.4604 45.9476 35.0429 46.8938 32.4584C47.2075 32.6905 47.5907 32.821 47.9931 32.821H53.2968C53.2973 32.821 53.2981 32.8211 53.2986 32.8211C53.2992 32.8211 53.2997 32.821 53.3003 32.821H58.1499C58.8333 32.821 59.4581 32.4467 59.7806 31.8441C60.1031 31.2415 60.068 30.514 59.6889 29.9452L57.4279 26.5541ZM49.4204 25.2388C49.4198 25.2388 49.4192 25.2388 49.4186 25.2388H43.5907H25.0551V23.1138H43.5907H49.4126C49.4132 23.1138 49.4137 23.1139 49.4143 23.1139C49.4149 23.1139 49.4156 23.1138 49.4161 23.1138H56.2433C56.2755 23.1138 56.3019 23.14 56.3019 23.1724V25.1802C56.3019 25.2125 56.2755 25.2388 56.2433 25.2388H49.4204ZM24.1762 20.3852C23.6908 20.3852 23.2973 20.7787 23.2973 21.2641V22.2348V23.2972H21.264C20.7786 23.2972 20.3851 23.6907 20.3851 24.1761C20.3851 24.6615 20.7786 25.055 21.264 25.055H23.2973V26.1176V27.0883C23.2973 27.5737 23.6908 27.9672 24.1762 27.9672C24.6616 27.9672 25.0551 27.5737 25.0551 27.0883V26.9965H30.4623C29.3693 29.4384 26.9264 31.063 24.1762 31.063C20.3788 31.063 17.2893 27.9735 17.2893 24.1761C17.2893 20.3787 20.3788 17.2892 24.1762 17.2892C26.9265 17.2892 29.3695 18.9138 30.4624 21.3557H25.0551V21.264C25.0551 20.7787 24.6616 20.3852 24.1762 20.3852ZM58.2308 17.3379C58.2567 17.3864 58.2361 17.4173 58.2262 17.4322L55.6104 21.356H51.0573L53.7682 17.2895H58.1499C58.1676 17.2894 58.2048 17.2894 58.2308 17.3379ZM47.2991 18.2564C47.3011 18.2535 47.303 18.2507 47.3049 18.2477L47.9165 17.3303C47.9335 17.3047 47.9622 17.2894 47.9929 17.2894H51.6554L48.9445 21.3558H45.2327L47.2991 18.2564ZM24.1762 38.8289C16.0968 38.8289 9.52365 32.2558 9.52365 24.1762C9.52365 16.0968 16.0968 9.52367 24.1762 9.52367C31.2173 9.52367 37.2316 14.5442 38.5576 21.356H32.3497C31.1592 17.8944 27.8915 15.5316 24.1762 15.5316C19.4095 15.5316 15.5315 19.4097 15.5315 24.1764C15.5315 28.943 19.4095 32.8211 24.1762 32.8211C27.8914 32.8211 31.1591 30.4582 32.3496 26.9968H38.5576C37.2316 33.8084 31.2172 38.8289 24.1762 38.8289ZM36.9189 45.7919C36.9192 45.7926 36.9194 45.7934 36.9195 45.7941L38.2603 50.4776H27.9673V48.0589C31.0488 47.5774 33.9843 46.5068 36.6596 44.8857L36.9189 45.7919ZM26.2094 48.2689V50.4776H22.143V48.2662C22.8135 48.3223 23.4914 48.3524 24.1762 48.3524C24.859 48.3524 25.537 48.3242 26.2094 48.2689ZM5.92757 44.6757L6.94606 41.1169C7.93373 42.1214 9.00742 43.0408 10.1566 43.8615L9.92361 44.6757H5.92757ZM11.4255 45.8161C11.4255 45.816 11.4255 45.816 11.4255 45.8161L11.6951 44.8745C14.3105 46.4575 17.2485 47.5584 20.3851 48.0546V50.4777H10.0914L11.4255 45.8161ZM26.2094 58.1515C26.2094 58.2021 26.1682 58.2432 26.1177 58.2432H22.2348C22.1842 58.2432 22.1431 58.202 22.1431 58.1515V56.1182H26.2096V58.1515H26.2094ZM8.98024 54.3604L9.58833 52.2354H38.7634L39.3717 54.3604H8.98024ZM46.2593 58.2067C46.2318 58.2432 46.1973 58.2432 46.1859 58.2432H42.381C42.3402 58.2432 42.304 58.2158 42.2927 58.1767L38.9244 46.4111H42.9213L46.2741 58.1263C46.2775 58.1371 46.2868 58.1702 46.2593 58.2067ZM42.4183 44.6531H38.4213L38.1977 43.8722C38.4188 43.7143 38.6383 43.5534 38.8551 43.3875C39.7603 42.6949 40.6134 41.9384 41.4092 41.1272L42.4183 44.6531ZM47.9166 31.0222L47.3043 30.1038C47.3027 30.1016 47.3012 30.0992 47.2997 30.097L45.2328 26.9966H48.9446L51.6555 31.0631H47.993C47.9622 31.0631 47.9337 31.0479 47.9166 31.0222ZM58.2308 31.0146C58.2048 31.0631 58.1677 31.0631 58.1498 31.0631H53.7681L51.0572 26.9966H55.6103L58.2261 30.9204C58.236 30.9353 58.2566 30.9661 58.2308 31.0146Z" fill="#E10000"/>
</svg>
