<svg width="60" height="60" viewBox="0 0 60 60" fill="none" xmlns="http://www.w3.org/2000/svg">
<path d="M59.8822 38.4959L59.1307 37.1943C59.7073 34.8541 60 32.4358 60 30C60 21.9869 56.8794 14.4532 51.2132 8.78687C45.5468 3.12062 38.0132 3.05176e-05 30 3.05176e-05C25.8407 3.05176e-05 21.8139 0.835343 18.0314 2.48288C14.3779 4.07417 11.1207 6.34527 8.35055 9.23312C8.01457 9.58339 8.02605 10.1398 8.37644 10.4758C8.7266 10.8117 9.28301 10.8001 9.6191 10.4499C14.9959 4.84468 22.234 1.75784 30 1.75784C45.5728 1.75784 58.2422 14.4272 58.2422 30C58.2422 31.655 58.0991 33.3009 57.8157 34.9165L56.331 32.3448C56.2766 32.2507 56.2062 32.171 56.1258 32.1053C56.1816 31.4056 56.2113 30.7008 56.2113 30.0002C56.2113 22.9987 53.485 16.4164 48.5344 11.4658C43.5838 6.51519 37.0015 3.7887 30 3.7887C22.9985 3.7887 16.4162 6.51519 11.4656 11.4657C6.51504 16.4164 3.78867 22.9985 3.78867 30C3.78867 36.2059 5.99613 42.2251 10.0044 46.9491C10.1782 47.1541 10.4258 47.2593 10.6751 47.2593C10.8759 47.2593 11.078 47.1907 11.2433 47.0506C11.6134 46.7365 11.6589 46.1819 11.3448 45.8118C7.6057 41.4052 5.54648 35.7898 5.54648 30C5.54648 16.5163 16.5163 5.54652 30 5.54652C43.4837 5.54652 54.4535 16.5163 54.4535 30C54.4535 30.7429 54.4182 31.4904 54.3512 32.2305L52.7249 32.7155C51.5821 31.7891 50.3149 31.0557 48.9471 30.5289L48.3218 27.9024C48.2276 27.5065 47.8738 27.227 47.4668 27.227H40.3641C39.9571 27.227 39.6033 27.5064 39.5091 27.9024L38.8838 30.5289C37.5161 31.0558 36.2489 31.7891 35.106 32.7155L33.7734 32.3181C34.1895 31.6434 34.4302 30.8494 34.4302 30C34.4302 28.6061 33.7825 27.3612 32.7729 26.5485V16.5048C32.7729 14.9759 31.5289 13.7318 29.9999 13.7318C28.4708 13.7318 27.2269 14.9758 27.2269 16.5048V26.5485C26.977 26.7496 26.7495 26.9772 26.5484 27.227H20.0561C18.5271 27.227 17.283 28.471 17.283 30C17.283 31.5291 18.527 32.773 20.0561 32.773H26.5484C27.3611 33.7826 28.6059 34.4303 29.9999 34.4303C30.1017 34.4303 30.2024 34.4256 30.3025 34.4188L27.9485 38.4959C27.7451 38.8484 27.8101 39.2944 28.1059 39.574L30.0675 41.4286C29.9538 42.1511 29.8964 42.8839 29.8964 43.6136C29.8964 44.3433 29.9539 45.0762 30.0675 45.7987L28.1059 47.6532C27.8101 47.9328 27.7451 48.3788 27.9485 48.7313L31.2327 54.4198C30.8227 54.4402 30.4118 54.4537 29.9998 54.4537C24.1873 54.4537 18.5549 52.38 14.1404 48.6147C13.7711 48.2996 13.2163 48.3437 12.9014 48.713C12.5864 49.0823 12.6305 49.637 12.9997 49.952C17.7322 53.9884 23.7697 56.2114 30 56.2114C32.162 56.2114 34.3057 55.9482 36.378 55.4289C37.1678 55.9346 38.0046 56.3597 38.8838 56.6983L38.9096 56.8071C36.0458 57.7589 33.0527 58.2422 30 58.2422C14.4272 58.2422 1.75781 45.5728 1.75781 30C1.75781 24.0311 3.59684 18.3258 7.07613 13.5009C7.35996 13.1071 7.27102 12.5578 6.87727 12.2739C6.48328 11.99 5.93402 12.079 5.65031 12.4728C1.95387 17.5989 0 23.6598 0 30C0 38.0132 3.12059 45.5468 8.78684 51.2132C14.4532 56.8794 21.9868 60 30 60C33.1901 60 36.3196 59.5023 39.3182 58.5229L39.5091 59.3248C39.6033 59.7207 39.9571 60.0001 40.3641 60.0001H47.4668C47.8738 60.0001 48.2276 59.7208 48.3218 59.3248L48.9471 56.6983C50.3148 56.1714 51.582 55.438 52.7249 54.5117L55.3185 55.2852C55.7084 55.4015 56.1273 55.235 56.3309 54.8825L59.8822 48.7313C60.0857 48.3788 60.0206 47.9328 59.7248 47.6532L57.7632 45.7987C57.8769 45.0763 57.9343 44.3434 57.9343 43.6136C57.9343 42.8837 57.8768 42.151 57.7632 41.4286L59.7248 39.5741C60.0206 39.2944 60.0857 38.8484 59.8822 38.4959ZM28.9848 16.5048C28.9848 15.9451 29.4402 15.4896 30 15.4896C30.5598 15.4896 31.0152 15.945 31.0152 16.5048V25.6885C30.6889 25.6117 30.3495 25.5698 30 25.5698C29.6505 25.5698 29.3111 25.6117 28.9848 25.6885V16.5048ZM20.0562 31.0152C19.4965 31.0152 19.041 30.5598 19.041 30C19.041 29.4403 19.4964 28.9848 20.0562 28.9848H25.6884C25.6117 29.3111 25.5697 29.6506 25.5697 30C25.5697 30.3494 25.6117 30.689 25.6884 31.0152H20.0562ZM27.3275 30C27.3275 28.5264 28.5264 27.3276 30 27.3276C31.4736 27.3276 32.6725 28.5264 32.6725 30C32.6725 31.4737 31.4736 32.6725 30 32.6725C28.5264 32.6725 27.3275 31.4737 27.3275 30ZM56.2123 40.4759C55.9938 40.6825 55.8961 40.9862 55.9532 41.2814C56.1015 42.0483 56.1766 42.833 56.1766 43.6136C56.1766 44.3942 56.1014 45.1789 55.9532 45.9457C55.8961 46.2409 55.9938 46.5447 56.2123 46.7513L58.0129 48.4535L55.1557 53.4023L52.7739 52.6919C52.4855 52.6057 52.1733 52.6734 51.9463 52.8706C50.7548 53.9057 49.3983 54.691 47.9142 55.2045C47.6303 55.3027 47.4162 55.5392 47.3467 55.8314L46.7726 58.2422H41.0583L40.4843 55.8316C40.4147 55.5393 40.2007 55.3028 39.9168 55.2046C38.4327 54.6911 37.0761 53.9058 35.8847 52.8707C35.6576 52.6734 35.3455 52.6057 35.0571 52.692L32.6753 53.4024L29.8181 48.4537L31.6187 46.7514C31.8371 46.5449 31.9349 46.2412 31.8778 45.946C31.7296 45.1789 31.6543 44.3942 31.6543 43.6137C31.6543 42.8332 31.7296 42.0487 31.8778 41.2816C31.9349 40.9864 31.8371 40.6826 31.6187 40.476L29.8181 38.7737L32.6753 33.825L35.0571 34.5354C35.3453 34.6213 35.6576 34.5539 35.8847 34.3567C37.0761 33.3216 38.4327 32.5363 39.9168 32.0228C40.2007 31.9245 40.4148 31.6881 40.4843 31.3957L41.0583 28.9851H46.7726L47.3466 31.3957C47.4162 31.688 47.6302 31.9245 47.9141 32.0228C49.3982 32.5363 50.7547 33.3216 51.9462 34.3567C52.1733 34.5541 52.4855 34.6214 52.7738 34.5354L55.1556 33.825L58.0127 38.7737L56.2123 40.4759Z" fill="#E10000"/>
<path d="M52.7622 40.4474C52.2918 40.5672 52.0076 41.0456 52.1275 41.516C52.3007 42.1959 52.3886 42.9017 52.3886 43.6135C52.3886 48.2854 48.5878 52.0861 43.916 52.0861C39.2435 52.0861 35.4421 48.2852 35.4421 43.6135C35.4421 38.9417 39.2435 35.1408 43.916 35.1408C46.4542 35.1408 48.8378 36.2652 50.4556 38.2256C50.7646 38.5999 51.3183 38.6531 51.693 38.3441C52.0673 38.0351 52.1204 37.4811 51.8115 37.1067C49.8585 34.7402 46.9808 33.383 43.916 33.383C38.2742 33.383 33.6843 37.9724 33.6843 43.6135C33.6843 49.2546 38.2742 53.8439 43.916 53.8439C49.557 53.8439 54.1464 49.2545 54.1464 43.6135C54.1464 42.7553 54.0403 41.9037 53.831 41.082C53.7111 40.6117 53.2324 40.3274 52.7622 40.4474Z" fill="#E10000"/>
<path d="M44.9734 39.581L42.7899 41.7646C41.7041 40.7494 39.9948 40.7714 38.936 41.8302C37.855 42.9114 37.855 44.6706 38.936 45.7518L40.8301 47.6459C41.354 48.1696 42.0503 48.458 42.7909 48.458C43.5315 48.458 44.2279 48.1696 44.7517 47.6457L48.895 43.5026C49.976 42.4214 49.976 40.6622 48.8949 39.5809C47.8138 38.5001 46.0547 38.5 44.9734 39.581ZM47.6521 40.8239C48.0479 41.2197 48.0479 41.8638 47.6521 42.2596L43.5089 46.4027C43.3171 46.5945 43.0622 46.7002 42.791 46.7002C42.5199 46.7002 42.2649 46.5946 42.0731 46.4028L40.1792 44.5088C39.7833 44.1129 39.7833 43.4688 40.179 43.0731C40.377 42.8752 40.637 42.7763 40.8969 42.7763C41.1569 42.7763 41.4169 42.8752 41.6147 43.0731L42.1695 43.6279C42.3344 43.7926 42.5578 43.8853 42.791 43.8853C43.0242 43.8853 43.2477 43.7927 43.4125 43.6279L46.2163 40.8239C46.6123 40.4283 47.2563 40.4283 47.6521 40.8239Z" fill="#E10000"/>
<path d="M30.8789 10.8228V8.45511C30.8789 7.96972 30.4854 7.5762 30 7.5762C29.5146 7.5762 29.1211 7.96972 29.1211 8.45511V10.8226C29.1211 11.308 29.5146 11.7016 30 11.7016C30.4854 11.7016 30.8789 11.3082 30.8789 10.8228Z" fill="#E10000"/>
<path d="M20.4123 14.2713C20.5614 14.2713 20.7125 14.2333 20.8509 14.1534C21.2713 13.9107 21.4153 13.3732 21.1726 12.9528L19.9888 10.9024C19.7461 10.4821 19.2086 10.3379 18.7882 10.5807C18.3679 10.8234 18.2238 11.361 18.4665 11.7813L19.6504 13.8317C19.8131 14.1137 20.1086 14.2713 20.4123 14.2713Z" fill="#E10000"/>
<path d="M12.9523 21.1727C13.0907 21.2526 13.2419 21.2906 13.3909 21.2906C13.6947 21.2906 13.9901 21.1329 14.1529 20.851C14.3956 20.4307 14.2515 19.8931 13.8312 19.6504L11.7808 18.4666C11.3604 18.2238 10.8229 18.3679 10.5802 18.7883C10.3375 19.2086 10.4815 19.7462 10.9019 19.9889L12.9523 21.1727Z" fill="#E10000"/>
<path d="M7.57617 30C7.57617 30.4854 7.96969 30.8789 8.45508 30.8789H10.8226C11.308 30.8789 11.7015 30.4854 11.7015 30C11.7015 29.5146 11.308 29.1211 10.8226 29.1211H8.45508C7.96969 29.1211 7.57617 29.5146 7.57617 30Z" fill="#E10000"/>
<path d="M39.1492 14.1534C39.2876 14.2333 39.4387 14.2713 39.5878 14.2713C39.8916 14.2713 40.187 14.1136 40.3498 13.8317L41.5336 11.7813C41.7763 11.361 41.6323 10.8234 41.2119 10.5807C40.7914 10.3379 40.254 10.4821 40.0113 10.9024L38.8275 12.9528C38.5848 13.3732 38.7288 13.9107 39.1492 14.1534Z" fill="#E10000"/>
<path d="M46.609 21.2905C46.758 21.2905 46.9092 21.2526 47.0476 21.1726L49.098 19.9888C49.5184 19.7461 49.6624 19.2086 49.4197 18.7882C49.177 18.3679 48.6395 18.2239 48.2191 18.4666L46.1687 19.6504C45.7483 19.8931 45.6043 20.4306 45.847 20.851C46.0098 21.1329 46.3052 21.2905 46.609 21.2905Z" fill="#E10000"/>
<path d="M11.3426 41.6515C11.4917 41.6515 11.6429 41.6135 11.7812 41.5336L13.8317 40.3498C14.252 40.1071 14.3961 39.5695 14.1534 39.1492C13.9107 38.7288 13.373 38.5847 12.9528 38.8275L10.9023 40.0113C10.482 40.254 10.338 40.7916 10.5807 41.2119C10.7434 41.4939 11.0389 41.6515 11.3426 41.6515Z" fill="#E10000"/>
<path d="M19.2268 49.5376C19.5306 49.5376 19.826 49.3799 19.9888 49.098L21.1726 47.0476C21.4153 46.6273 21.2713 46.0897 20.8509 45.847C20.4306 45.6042 19.893 45.7484 19.6504 46.1687L18.4665 48.2191C18.2238 48.6395 18.3679 49.177 18.7882 49.4197C18.9266 49.4996 19.0778 49.5376 19.2268 49.5376Z" fill="#E10000"/>
</svg>
