<svg width="60" height="57" viewBox="0 0 60 57" fill="none" xmlns="http://www.w3.org/2000/svg">
<path d="M40.2272 11.4134H38.5328C38.8316 10.8926 39.0036 10.29 39.0036 9.6477V4.25579C39.0036 2.29325 37.4071 0.696686 35.4445 0.696686H3.5591C1.59656 0.697389 0 2.29395 0 4.25637V9.64829C0 11.6108 1.59656 13.2074 3.5591 13.2074H5.25328C4.95445 13.7282 4.78242 14.3307 4.78242 14.9731V20.365C4.78242 21.0074 4.95434 21.6099 5.25328 22.1306H3.5591C1.59656 22.1305 0 23.7271 0 25.6895V31.0814C0 32.6332 0.998789 33.9556 2.38687 34.4412C2.01234 35.0046 1.79344 35.6801 1.79344 36.4061V41.798C1.79344 42.524 2.01234 43.1994 2.38687 43.7629C0.998789 44.2485 0 45.5708 0 47.1226V52.5145C0 54.477 1.59656 56.0735 3.5591 56.0735H30.9012C31.3965 56.0735 31.7979 55.672 31.7979 55.1768C31.7979 54.6816 31.3964 54.2801 30.9012 54.2801H3.5591C2.58539 54.2801 1.79344 53.488 1.79344 52.5145V47.1226C1.79344 46.149 2.58551 45.357 3.5591 45.357H5.35254H10.1122H20.8986C21.394 45.357 21.7954 44.9555 21.7954 44.4602C21.7954 43.965 21.394 43.5635 20.8986 43.5635H10.1121H5.35254C4.37883 43.5635 3.58687 42.7715 3.58687 41.7979V36.4059C3.58687 35.4324 4.37895 34.6403 5.35254 34.6403H19.2647C19.76 34.6403 20.1614 34.2388 20.1614 33.7436C20.1614 33.2483 19.76 32.8468 19.2647 32.8468H3.5591C2.58539 32.8468 1.79344 32.0548 1.79344 31.0812V25.6893C1.79344 24.7157 2.58551 23.9236 3.5591 23.9236H8.34152H15.5188H24.3458C24.8412 23.9236 25.2425 23.5221 25.2425 23.0269C25.2425 22.5316 24.8412 22.1302 24.3458 22.1302H15.5188H8.34152C7.36781 22.1302 6.57586 21.3381 6.57586 20.3645V14.9726C6.57586 13.999 7.36793 13.2069 8.34152 13.2069H35.4446H40.2272C41.2009 13.2069 41.9929 13.999 41.9929 14.9726V15.6414C41.9929 16.1366 42.3942 16.5381 42.8896 16.5381C43.3849 16.5381 43.7863 16.1366 43.7863 15.6414V14.9726C43.7863 13.0099 42.1897 11.4134 40.2272 11.4134ZM37.2103 9.64829C37.2103 10.6219 36.4182 11.414 35.4446 11.414H8.34152H3.5591C2.58539 11.4138 1.79344 10.6218 1.79344 9.64829V4.25637C1.79344 3.28278 2.58551 2.49071 3.5591 2.49071H35.4446C36.4184 2.49071 37.2103 3.28278 37.2103 4.25637V9.64829Z" fill="#E10000"/>
<path d="M51.1324 20.2222C50.7177 19.9518 50.162 20.0689 49.8916 20.4839C49.6211 20.8987 49.7383 21.4543 50.1532 21.7246C55.196 25.0109 58.2065 30.5614 58.2065 36.5721C58.2065 46.3365 50.2625 54.2805 40.4981 54.2805C30.7336 54.2805 22.7895 46.3365 22.7895 36.5721C22.7895 26.8076 30.7336 18.8636 40.4981 18.8636C43.0618 18.8636 45.5345 19.3992 47.847 20.4555C48.2979 20.6614 48.8295 20.4628 49.0352 20.0124C49.241 19.5619 49.0426 19.03 48.5921 18.8242C46.044 17.6603 43.3208 17.0703 40.4981 17.0703C29.7449 17.0703 20.9962 25.8188 20.9962 36.5721C20.9962 47.3253 29.7449 56.0738 40.4981 56.0738C51.2513 56.0738 60 47.3254 60 36.5722C60 29.9528 56.6851 23.8407 51.1324 20.2222Z" fill="#E10000"/>
<path d="M50.435 26.6351C47.7807 23.9808 44.2518 22.5191 40.4983 22.5191C36.7448 22.5191 33.2158 23.9809 30.5616 26.6351C27.0135 30.183 25.6231 35.3994 26.9329 40.2486C27.0621 40.7267 27.554 41.0096 28.0324 40.8805C28.5104 40.7514 28.7933 40.2592 28.6641 39.781C27.5213 35.5499 28.7343 30.9985 31.8298 27.9032C34.1452 25.5878 37.2239 24.3124 40.4984 24.3124C43.773 24.3124 46.8516 25.5876 49.167 27.9032C53.947 32.6831 53.947 40.4605 49.167 45.2405C44.3872 50.0203 36.6098 50.0203 31.8298 45.2405C30.9706 44.3812 30.2477 43.4079 29.6808 42.3474C29.4475 41.9107 28.9045 41.7457 28.4675 41.9794C28.0307 42.2127 27.8658 42.7561 28.0994 43.1928C28.7494 44.409 29.5778 45.5245 30.5617 46.5084C33.3014 49.248 36.8999 50.6178 40.4985 50.6178C44.0971 50.6178 47.6956 49.2482 50.4352 46.5084C55.9141 41.0294 55.9141 32.1142 50.435 26.6351Z" fill="#E10000"/>
<path d="M41.3948 35.7469V30.8089C42.7021 31.1134 43.6588 32.0657 43.6588 33.1909C43.6588 33.6862 44.0602 34.0877 44.5555 34.0877C45.0509 34.0877 45.4523 33.6862 45.4523 33.1909C45.4523 31.0966 43.6998 29.3502 41.3949 28.9847V28.4574C41.3949 27.9622 40.9935 27.5607 40.4982 27.5607C40.0028 27.5607 39.6014 27.9622 39.6014 28.4574V28.9847C37.2965 29.3504 35.5439 31.0967 35.5439 33.1909C35.5439 35.2852 37.2965 37.0316 39.6014 37.3971V42.3352C38.294 42.0306 37.3373 41.0784 37.3373 39.9531C37.3373 39.4579 36.9359 39.0564 36.4405 39.0564C35.9452 39.0564 35.5438 39.4579 35.5438 39.9531C35.5438 42.0475 37.2964 43.7938 39.6013 44.1593V44.6867C39.6013 45.1819 40.0027 45.5834 40.498 45.5834C40.9934 45.5834 41.3948 45.1819 41.3948 44.6867V44.1593C43.6997 43.7938 45.4521 42.0474 45.4521 39.9531C45.4521 37.8589 43.6997 36.1124 41.3948 35.7469ZM39.6014 35.573C38.294 35.2684 37.3373 34.3162 37.3373 33.1909C37.3373 32.0657 38.294 31.1136 39.6014 30.8089V35.573ZM41.3946 42.3352V37.5712C42.702 37.8757 43.6587 38.8281 43.6587 39.9532C43.6587 41.0782 42.702 42.0305 41.3946 42.3352Z" fill="#E10000"/>
</svg>
