<svg width="618" height="448" viewBox="0 0 618 448" fill="none" xmlns="http://www.w3.org/2000/svg">
<g filter="url(#filter0_f)">
<path fill-rule="evenodd" clip-rule="evenodd" d="M547.491 199.498L516.008 184.677L377.779 113.133L342.661 97.5035L157.969 87.1718L88.0319 136.403L94.3785 173.261L139.906 184.613L166.258 189.605L183.949 214.959L207.3 230.49L142.303 262.365L137.133 289.025L187.129 337.578L185.895 293.928L250.193 273.941L266.803 284.168L319.354 324.541L383.503 337.458L420.256 315.382L394.517 282.441L426.038 283.047L520.489 317.174L547.491 199.498Z" fill="url(#paint0_radial)"/>
</g>
<path opacity="0.36" fill-rule="evenodd" clip-rule="evenodd" d="M503.073 366.272L469.918 364.219L323.374 353.896L286.522 351.791L103.422 355.392L42 367.599L53.7268 374.922L100.178 375.829L126.826 376.032L147.994 380.66L173.258 383.109L114.11 391.62L112.998 397.221L169.378 405.578L161.664 396.714L221.902 390.646L239.751 392.222L297.426 398.834L362.409 399.487L395.256 393.846L365.044 387.92L396.123 387.068L494.058 391.11L503.073 366.272Z" fill="#4D4D4D"/>
<path fill-rule="evenodd" clip-rule="evenodd" d="M367.909 274.113L357.945 256.549L344.609 249.142L334.509 235.655C332.516 226.786 330.496 217.922 328.491 209.055L323.071 193.381L317.663 197.399L289.927 201.663L276.72 200.669L267.962 194.822L266.374 186.993L279.452 180.348L259.467 164.454C257.222 158.845 254.974 153.237 252.722 147.631L252.934 141.159L263.571 117.069L301.053 109.11L292.033 133.539L293.411 134.224L340.038 134.287L353.189 132.405L361.754 129.181C370.896 128.369 380.039 127.555 389.183 126.758C397.283 127.399 405.383 128.061 413.482 128.711L420.548 132.031L431.623 133.009L472.541 126.7L483.362 118.337L495.692 97.3921C500.199 104.992 504.712 112.59 509.213 120.195C510.705 129.009 512.184 137.828 513.665 146.644L487.788 178.484L478.886 179.449L479.847 179.92L477.942 187.735L469.427 193.931L456.666 195.647L446.936 192.991L448.613 198.435L447.612 207.706L444.435 210.646L443.984 224.512L436.989 241.786L437.272 254.693L438.372 255.78L441.007 258.062L446.557 271.635L441.495 289.367L433.009 297.069L421.761 301.66L412.553 301.242L403.396 303.744C397.609 303.571 391.823 303.406 386.036 303.244C381.419 301.994 376.799 300.753 372.18 299.508L367.406 283.814L369.123 276.25L367.909 274.113Z" fill="#290000"/>
<path fill-rule="evenodd" clip-rule="evenodd" d="M275.093 261.762L314.075 282.771L308.382 305.03L311.231 322.682L321.571 339.92L318.287 341.211L322.334 345.298L326.562 358.535L313.92 362.41L308.121 360.225L308.007 365.11L282.842 363.93L274.177 357.604L277.333 346.536L275.56 346.277L274.936 335.151L269.311 283.406C270.397 275.736 271.476 268.065 272.556 260.395L275.093 261.762Z" fill="#290000"/>
<path fill-rule="evenodd" clip-rule="evenodd" d="M274.142 263.532L311.738 283.794L306.334 304.924L309.314 323.384L318.631 338.918L314.715 340.458L320.575 346.372L324.037 357.212L313.99 360.291L306.184 357.352L306.051 363.011L283.533 361.953L276.493 356.815L279.897 344.88L277.474 344.526L276.939 334.982L271.335 283.437L274.142 263.532Z" fill="#560000"/>
<path fill-rule="evenodd" clip-rule="evenodd" d="M200.446 207.934L204.725 157.22C212.297 138.292 219.873 119.365 227.44 100.434L264.28 69.8909L293.08 70.7012L306.09 64.6695C312.474 64.4441 318.857 64.2187 325.24 64L340.798 69.962L365.918 68.9545C376.102 74.6683 386.286 80.3848 396.465 86.1094C405.904 102.041 415.33 117.979 424.758 133.917C414.018 177.077 403.294 220.243 392.527 263.398C385.229 270.745 377.924 278.085 370.626 285.433C359.311 290.196 347.999 294.965 336.689 299.74C330.483 299.764 324.275 299.787 318.068 299.823C301.307 297.628 284.513 295.396 267.74 293.319L231.961 286.366L214.905 271.039L194.331 254.512L200.446 207.934Z" fill="#290000"/>
<path fill-rule="evenodd" clip-rule="evenodd" d="M128.24 345.995L135.75 366.195L137.838 374.749L117.569 378.957L107.562 372.263L100.837 377.899L79.5148 376.218L70.989 369.685L80.8873 347.84L73.9606 344.152C75.0862 340.755 76.2145 337.359 77.3361 333.962L85.1226 319.593L82.0746 316.736L97.3472 295.883L108.54 276.076L116.163 259.349L118.801 252.297C121.156 247.81 123.501 243.315 125.853 238.824L128.873 244.649L131.453 243.785L152.562 217.737L160.996 181.581L175.367 156.054L164.867 158.834L125.537 190.928L103.52 191.876L95.3764 177.261L98.1897 166.316L141.151 122.348L141.697 119.723L139.831 117.928L135.53 118.065L123.783 122.775C118.293 122.791 112.802 122.8 107.313 122.826C101.026 122.061 94.7311 121.34 88.4417 120.598L98.5399 112.586L92.4316 110.222C86.6936 107.077 80.9342 103.969 75.1855 100.844L98.3105 92.0137L121.831 90.2294L125.495 82.2577L140.356 94.8847L145.741 104.818L154.472 114.795L153.599 126.224L114.148 170.668L112.828 173.416L113.576 175.389L119.388 174.889L164.161 136.131L184.607 129.516L194.721 133.306L211.33 127.126L232.292 107.164C232.472 137.769 232.664 168.373 232.83 198.977C229.197 216.838 225.559 234.698 221.916 252.556L183.17 279.118L156.59 285.165L146.923 293.873L133.773 314.771L130.452 326.49L131.747 345.505L128.24 345.995Z" fill="#290000"/>
<path fill-rule="evenodd" clip-rule="evenodd" d="M125.491 344.352L133.828 366.778L135.397 373.207L117.984 376.821L107.424 369.759L100.178 375.829L80.2607 374.26L73.4763 369.061L83.4926 346.956L76.401 343.18L79.1942 334.749L87.626 319.187L84.7457 316.488L99.0121 297.008L110.336 276.965L118.014 260.119L120.636 253.112L125.841 243.165L127.879 247.097L132.642 245.501L154.414 218.634L162.888 182.316L178.639 154.338L176.501 153.677L163.936 157.003L124.785 188.951L104.668 189.818L97.5162 176.983L99.9942 167.341L142.996 123.333L143.888 119.047L140.615 115.899L135.108 116.074L123.386 120.773L107.478 120.823L93.4754 119.169L102.534 111.982L93.2728 108.397L79.9763 101.167L98.7559 93.9979L123.157 92.1451L126.21 85.5016L138.761 96.1659L144.065 105.95L152.405 115.479L151.645 125.406L112.464 169.547L110.648 173.327L112.239 177.524L120.203 176.838L165.167 137.915L184.561 131.64L194.72 135.448L212.421 128.86L230.316 111.82L230.826 198.777L220.115 251.359L182.349 277.249L155.6 283.334L155.516 283.431L145.38 292.561L131.919 313.953L128.426 326.279L129.616 343.776L125.491 344.352Z" fill="#560000"/>
<path fill-rule="evenodd" clip-rule="evenodd" d="M118.126 355.88L126.729 375.006L117.983 376.821L107.424 369.759L103.422 355.393L100.178 375.831L80.2606 374.26L77.8981 365.377L92.6864 348.661L107.832 350.98L118.126 355.88ZM76.4009 343.18L79.1941 334.749L87.6259 319.188L84.7442 316.488L99.0107 297.008L110.336 276.966L118.013 260.12L120.634 253.112L125.84 243.166L127.878 247.097L132.64 245.502L154.413 218.635L162.886 182.317L180.662 154.965L176.499 153.68L163.934 157.006L124.785 188.951L104.669 189.818L97.5175 176.982L99.9954 167.34L142.997 123.332L143.889 119.047L140.616 115.898L135.109 116.072L123.387 120.773L107.479 120.822L93.478 119.169L102.536 111.982L93.2754 108.397L79.9789 101.167L98.7584 93.9965L123.161 92.1438L126.214 85.5002L138.765 96.1645L144.069 105.949L152.407 115.478L151.648 125.404L112.464 169.547L110.648 173.329L112.239 177.525L120.202 176.84L165.167 137.915L184.561 131.641L194.72 135.448L212.422 128.86L230.316 111.82L196.8 174.76L190.637 204.026L180.013 235.754L162.536 262.75L147.288 270.806L139.156 270.489L140.67 265.744L127.377 279.955L122.994 279.346L118.984 270.762L117.899 277.099L121.422 286.718L117.138 297.723L108.331 329.318L106.329 345.465L85.2755 344.074L76.4009 343.18Z" fill="#710C0D"/>
<path fill-rule="evenodd" clip-rule="evenodd" d="M193.73 153.098L180.664 154.964L176.501 153.677L163.936 157.003L124.785 188.951L104.668 189.818L97.5162 176.983L99.9942 167.341L142.996 123.333L143.888 119.047L140.615 115.899L135.108 116.074L123.386 120.773L107.478 120.823L93.4754 119.169L102.534 111.982L93.2728 108.397L79.9763 101.167L98.7559 93.9979L123.157 92.1451L126.21 85.5016L138.761 96.1659L144.065 105.95L152.405 115.479L151.645 125.406L112.464 169.547L110.648 173.327L112.239 177.524L120.203 176.838L165.167 137.915L184.561 131.64L194.72 135.448L212.421 128.86L207.184 144.69L193.73 153.098Z" fill="#710C0D"/>
<path fill-rule="evenodd" clip-rule="evenodd" d="M193.73 153.097L180.664 154.964L176.501 153.678L163.936 157.004L124.785 188.951L104.67 189.818L123.506 185.373L158.887 152.987L170.26 147.129L182.637 147.557L212.422 128.859L207.186 144.688L193.73 153.097Z" fill="#4F0000"/>
<path fill-rule="evenodd" clip-rule="evenodd" d="M178.639 154.339L186.634 140.777L194.72 135.448L212.421 128.861L221.805 119.924L222.289 127.532L215.215 136.403L202.506 157.966L183.051 164.36L162.888 182.316L178.639 154.339Z" fill="#8F191D"/>
<path fill-rule="evenodd" clip-rule="evenodd" d="M204.654 262.646L208.971 261.84L199.877 248.294L194.404 230.264L194.793 249.609L197.663 256.191L199.824 260.015L199.871 261.966L194.314 269.977L204.654 262.646Z" fill="#290000"/>
<path fill-rule="evenodd" clip-rule="evenodd" d="M191.904 201.895L206.705 157.674L229.111 101.658L264.985 71.9167L293.502 72.7189L306.573 66.6603L324.891 66.0204L335.513 72.1823L365.425 70.9829L395.012 87.5985L422.61 134.233L390.712 262.378L369.478 283.743L336.28 297.738L318.191 297.819L268.118 291.347L225.061 268.085L216.239 269.537L199.158 255.815L196.075 249.204L191.904 201.895Z" fill="#5D0000"/>
<path fill-rule="evenodd" clip-rule="evenodd" d="M213.23 256.079L216.239 269.537L232.892 284.501L234.908 284.25L218.151 261.388L214.852 254.967L213.23 256.079Z" fill="#470000"/>
<path fill-rule="evenodd" clip-rule="evenodd" d="M214.573 200.543L222.524 148.99L229.111 101.658L264.985 71.9167L293.502 72.7189L306.573 66.6603L324.891 66.0204L335.513 72.1823L365.425 70.9829L395.012 87.5985L422.61 134.233L390.712 262.378L369.478 283.743L336.28 297.738L318.191 297.819L268.118 291.347L246.459 262.962L224.382 246.52L214.573 200.543Z" fill="#5D0000"/>
<path fill-rule="evenodd" clip-rule="evenodd" d="M228.348 150.943L215.215 136.403L229.111 101.658L264.985 71.9167L293.502 72.7189L306.573 66.6603L324.891 66.0204L335.513 72.1823L365.425 70.9829L395.012 87.5985L422.61 134.233L270.268 149.866L235.762 152.738L228.348 150.943Z" fill="#770000"/>
<path fill-rule="evenodd" clip-rule="evenodd" d="M318.191 297.819L294.77 294.791L277.964 293.182L276.956 246.009L299.29 289.416L313.751 286.863L319.188 278.808L306.93 267.887L318.547 270.491L326.559 269.495L334.514 248.102L308.221 230.599L302.09 224.353L318.284 230.935L325.059 229.215L317.239 207.661L309.311 206.399L298.25 211.627L294.133 215.869L296.258 221.665L285.301 222.573L288.981 212.805L288.061 206.856L288.211 197.672L312.007 184.875L361.95 210.146L368.47 229.525L377.816 255.759L369.478 283.743L336.28 297.738L318.191 297.819Z" fill="#500000"/>
<path fill-rule="evenodd" clip-rule="evenodd" d="M369.113 276.565L367.931 285.448L376.343 289.21L430.419 295.954L372.567 270.127L359.923 253.675L347.548 243.597L336.374 234.8L343.947 247.289L358.991 256.974L369.113 276.565Z" fill="#290000"/>
<path fill-rule="evenodd" clip-rule="evenodd" d="M186.109 307.545L194.184 283.01L211.245 285.657L213.285 285.276L211.807 282.429L222.623 275.701L230.964 282.263L216.453 262.467C213.136 255.977 209.697 249.504 206.448 242.987L200.248 228.409C199.71 223.767 199.163 219.125 198.617 214.485L200.875 206.263C219.139 204.063 237.404 201.866 255.669 199.676C262.587 205.106 269.501 210.54 276.414 215.975L274.122 228.173L277.469 240.898L277.013 245.672C285.127 264.797 290.614 284.876 297.006 304.631L287.937 326.276L268.382 333.677C261.032 333.258 253.682 332.837 246.332 332.426L231.819 326.57L226.849 324.917L216.586 325.8L215.706 321.177L192.837 320.824L185.832 308.389L186.109 307.545Z" fill="#290000"/>
<path fill-rule="evenodd" clip-rule="evenodd" d="M188.018 308.174L195.564 285.252L211.28 287.69L216.313 286.752L214.445 283.154L222.488 278.151L230.875 284.752L244.116 283.103L251.957 290.55L294.868 304.536L286.419 324.704L268.072 331.647L246.776 330.438L232.566 324.705L227.071 322.877L218.219 323.638L217.372 319.196L194.025 318.836L188.018 308.174Z" fill="#6D0D0E"/>
<path fill-rule="evenodd" clip-rule="evenodd" d="M188.018 308.174L195.564 285.252L211.28 287.69L216.313 286.752L210.045 305.228L214.92 313.833L221.279 315.611L220.496 319.44L227.225 319.928L256.469 324.797L281.04 320.147L294.868 304.536L286.419 324.704L268.072 331.647L246.776 330.438L232.566 324.705L227.071 322.877L218.219 323.638L217.372 319.196L194.025 318.836L188.018 308.174Z" fill="#560000"/>
<path fill-rule="evenodd" clip-rule="evenodd" d="M208.294 242.201L202.296 228.276L198.036 211.602L204.89 185.713L215.966 153.542L239.525 151.798L264.396 182.04L261.988 192.881L255.166 202.151L274.462 229.472L274.968 245.984L266.194 240.788L246.095 237.308L265.439 243.773L278.895 255.239L288.923 305.077L266.819 314.987L242.572 302.571L226.742 264.722L214.63 254.157L208.294 242.201Z" fill="#6D0D0E"/>
<path fill-rule="evenodd" clip-rule="evenodd" d="M226.727 243.936L226.197 237.33L246.337 235.152L266.516 240.101L274.968 245.984L278.895 255.239L294.868 304.536L284.94 310.418L271.041 310.297L257.737 304.653L243.221 292.564L241.38 287.425L244.116 283.103L252.923 286.321L245.814 281.956L247.808 278.045L226.727 243.936Z" fill="#8C2424"/>
<path fill-rule="evenodd" clip-rule="evenodd" d="M239.195 251.61L234.863 237.108L247.117 235.342L266.194 240.788L274.968 245.984L278.895 255.239L290.586 291.323L288.011 294.144L272.522 294.371L260.651 285.133L239.195 251.61Z" fill="#ED1A26"/>
<path fill-rule="evenodd" clip-rule="evenodd" d="M247.256 215.877L245.767 209.413L258.578 197.516L277.131 207.647L280.713 220.398L280.184 235.075L274.968 245.984L269.075 222.837L247.256 215.877Z" fill="#6D0D0E"/>
<path fill-rule="evenodd" clip-rule="evenodd" d="M234.877 284.173L218.152 261.388L208.294 242.2L218.554 245.038L229.951 270.186L234.877 284.173Z" fill="#712632"/>
<path fill-rule="evenodd" clip-rule="evenodd" d="M208.294 242.2L202.296 228.276L207.635 222.211L217.493 228.849L218.247 238.052L208.294 242.2Z" fill="#712632"/>
<path fill-rule="evenodd" clip-rule="evenodd" d="M80.2607 374.26L73.4763 369.061L83.4926 346.956L92.6865 348.661L80.2607 374.26Z" fill="#7F3247"/>
<path fill-rule="evenodd" clip-rule="evenodd" d="M85.2741 344.074L76.4009 343.181L79.1941 334.749L87.6259 319.188L96.3288 317.335L85.2741 344.074Z" fill="#7F3247"/>
<path fill-rule="evenodd" clip-rule="evenodd" d="M87.626 319.188L84.7456 316.488L91.0511 307.878L101.148 293.228L110.336 276.965L118.014 260.119L120.636 253.112L125.841 243.165L127.879 247.097L132.642 245.501L154.414 218.634L162.888 182.316L168.492 178.274L161.361 219.384L143.012 244.559L128.476 261.074L119.781 267.445L121.112 259.197L110.394 288.575L96.2269 320.689L87.626 319.188Z" fill="#7F3247"/>
<path fill-rule="evenodd" clip-rule="evenodd" d="M216.068 199.543L198.036 211.602L204.578 182.886L215.168 155.863L230.639 166.983L220.614 184.228L216.068 199.543Z" fill="#712632"/>
<path fill-rule="evenodd" clip-rule="evenodd" d="M209.158 151.544L221.271 121.26L229.688 110.681L245.59 116.338L251.209 126.829L244.129 152.042L240.008 152.384L223.713 162.004L209.158 151.544Z" fill="#8F191D"/>
<path fill-rule="evenodd" clip-rule="evenodd" d="M237.49 316.826L214.92 313.833L210.045 305.228L215.451 294.047L233.014 294.579L241.443 304.9L254.695 308.779L237.49 316.826Z" fill="#712632"/>
<path fill-rule="evenodd" clip-rule="evenodd" d="M207.985 309.913L188.018 308.174L195.564 285.252L212.718 290.6L206.316 302.325L207.985 309.913Z" fill="#712632"/>
<path fill-rule="evenodd" clip-rule="evenodd" d="M428.597 188.945L432.296 196.803L439.876 209.148L449.664 233.072L456.875 239.073C459.86 242.578 462.841 246.087 465.82 249.598L471.373 265.877L502.406 310.377L515.495 318.529C519.461 322.837 523.42 327.151 527.38 331.464L525.02 341.752L549.713 375.742L546.072 381.526L533.058 385.63L521.316 384.145L521.782 385.513L518.763 393.159L493.811 393.114L486.543 391.446L466.97 378.955L466.06 356.928L458.991 354.277L453.99 325.417L436.986 304.751L415.675 285.051L425.481 182.321L428.597 188.945Z" fill="#290000"/>
<path fill-rule="evenodd" clip-rule="evenodd" d="M426.782 189.801L438.097 210.083L448.001 234.295L452.27 241.707L460.871 251.828L466.386 267.998L497.834 313.578L506.152 318.381L525.186 332.045L521.807 346.781L517.294 352.564L507.951 349.385L490.681 357.958L476.388 358.658L460.777 352.805L455.881 324.559L438.461 303.386L417.767 284.258L426.782 189.801Z" fill="#741F23"/>
<path fill-rule="evenodd" clip-rule="evenodd" d="M426.782 189.801L438.097 210.083L448.001 234.295L452.27 241.707L460.871 251.828L466.386 267.998L497.834 313.578L506.152 318.381L525.186 332.045L521.807 346.781L517.294 352.564L507.951 349.385L490.588 358.068L486.109 346.932L478.272 350.579L470.731 347.102L467.477 347.814L464.902 332.99L463.088 332.408L459.978 321.487L441.192 293.487L433.573 266.803L426.782 189.801Z" fill="#8C2424"/>
<path fill-rule="evenodd" clip-rule="evenodd" d="M434.973 241.405L424.147 252.633L424.716 294.092L429.838 297.371L432.94 296.248L440.967 289.184L445.897 271.952L440.174 258.58L436.333 255.276L434.973 241.405Z" fill="#290000"/>
<path fill-rule="evenodd" clip-rule="evenodd" d="M478.902 347.885L477.645 353.272L511.481 342.761L536.97 371.771L538.135 377.988L532.866 383.585L511.459 380.878L501.487 388.367L494.058 391.11L487.321 389.563L468.932 377.828L468.011 355.518L470.923 347.003L478.902 347.885Z" fill="#741F23"/>
<path fill-rule="evenodd" clip-rule="evenodd" d="M480.884 349.612L491.581 339.082L511.481 342.761L536.97 371.771L512.565 364.658L524.552 382.535L511.459 380.878L501.487 388.366L494.057 391.11L487.321 389.563L480.78 383.374L476.387 358.658L480.884 349.612Z" fill="#8C2424"/>
<path fill-rule="evenodd" clip-rule="evenodd" d="M444.134 239.853L448.001 234.295L455.441 240.487L464.042 250.607L469.558 266.778L501.006 311.871L514.203 320.09L525.186 332.045L510.515 332.699L487.798 338.956L478.902 347.885L470.923 347.003L469.368 332.016L473.746 325.889L480.238 321.411L473.333 322.631L468.427 325.523L451.799 302.32L470.733 313.753L474.156 312.972L453.483 295.022L446.603 282.346L455.096 273.972L459.809 269.919L447.931 266.82L441.391 254.22L444.134 239.853Z" fill="#ED1A26"/>
<path fill-rule="evenodd" clip-rule="evenodd" d="M447.07 235.632L448.001 234.295L455.441 240.487L464.042 250.607L469.558 266.778L501.006 311.871L514.203 320.09L525.186 332.045L520.435 332.257L511.879 322.493L497.834 313.578L467.383 266.776L460.871 251.828L453.817 243.549L447.07 235.632Z" fill="white"/>
<path fill-rule="evenodd" clip-rule="evenodd" d="M484.269 362.439L485.149 350.964L490.669 340.768L508.734 334.215L517.378 334.652L547.292 375.825L544.771 379.831L532.866 383.585L512.565 364.658L519.643 385.458L517.394 391.152L494.058 391.11L484.269 362.439Z" fill="#ED1A26"/>
<path fill-rule="evenodd" clip-rule="evenodd" d="M513.056 334.433L517.378 334.652L547.292 375.825L544.771 379.831L513.056 334.433Z" fill="white"/>
<path fill-rule="evenodd" clip-rule="evenodd" d="M267.636 130.654L247.721 105.301L229.111 101.658L264.985 71.9167L293.502 72.719L306.573 66.6604L325.498 72.3836L335.513 72.1824L341.985 71.9235L389.557 88.5082L416.504 132.347L373.832 263.384L360.227 223.836L344.004 192.885L319.596 171.315L280.895 168.294L267.636 130.654Z" fill="#8F191D"/>
<path fill-rule="evenodd" clip-rule="evenodd" d="M363.106 83.0827L343.235 71.8724L365.425 70.9829L395.012 87.5985L422.61 134.233L395.997 134.695L388.221 125.014L402.273 112.001L393.375 105.293L375.326 98.4291L363.106 83.0827Z" fill="#ED1A26"/>
<path fill-rule="evenodd" clip-rule="evenodd" d="M341.783 93.3552L325.412 77.5715L306.573 66.6603L324.891 66.0204L338.557 71.2459L355.383 77.7834L362.496 82.8278L371.338 98.1018L372.526 100.153L357.415 100.091L348.146 103.198L341.783 93.3552Z" fill="#ED1A26"/>
<path fill-rule="evenodd" clip-rule="evenodd" d="M365.634 147.559L335.633 146.335L333.154 141.584L336.908 130.151L352.304 119.311L340.418 123.938L331.077 130.386L323.734 127.022L336.373 111.389L358.964 102.259L382.594 103.156L402.273 112.001L417.823 142.904L413.472 155.706L394.918 149.66L365.634 147.559Z" fill="#ED1A26"/>
<path fill-rule="evenodd" clip-rule="evenodd" d="M308.052 102.163L282.453 83.4531L264.985 71.9167L293.502 72.719L315.755 73.6501L326.71 78.9722L332.699 87.337L319.827 88.539L305.41 89.2769L337.772 92.5356L347.292 103.319L334.252 111.66L321.74 125.128L308.052 102.163Z" fill="#ED1A26"/>
<path fill-rule="evenodd" clip-rule="evenodd" d="M456.796 193.604H456.798H456.796L468.664 192.008L476.166 186.547L477.517 181.009L461.256 173.059L440.201 165.996L426.028 171.413L424.472 177.022L441.524 189.842L456.796 193.604Z" fill="#97292A"/>
<path fill-rule="evenodd" clip-rule="evenodd" d="M471.452 183.443L474.202 183.558L477.517 181.009L461.256 173.059L440.201 165.996L426.028 171.413L432.483 170.379L452.475 176.644L471.452 183.443Z" fill="#ED1A26"/>
<path fill-rule="evenodd" clip-rule="evenodd" d="M455.197 180.191L456.823 177.704L473.244 178.248L478.397 175.395L471.411 171.979L440.201 165.996L426.444 170.507L429.172 178.03L455.197 180.191Z" fill="#7E1F24"/>
<path fill-rule="evenodd" clip-rule="evenodd" d="M450.841 183.57L464.98 184.347L446.667 178.785L426.949 171.9L429.172 178.03L440.668 185.455L446.926 186.521L450.841 183.57Z" fill="#68171A"/>
<path fill-rule="evenodd" clip-rule="evenodd" d="M430.286 182.936L486.753 176.575L511.533 146.084L499.995 123.709L488.458 136.01L474.316 154.889L419.598 155.952L430.286 182.936Z" fill="#8C6272"/>
<path fill-rule="evenodd" clip-rule="evenodd" d="M504.013 138.235L511.533 146.084L507.294 120.897L495.694 101.335L488.458 136.01L504.013 138.235Z" fill="white"/>
<path fill-rule="evenodd" clip-rule="evenodd" d="M431.687 135.035L473.347 128.612L485.377 126.211L492.829 116.892L487.587 153.909L482.142 157.049L439.212 162.326L428.776 156.599L431.687 135.035Z" fill="#D898B3"/>
<path fill-rule="evenodd" clip-rule="evenodd" d="M480.958 130.984L473.347 128.612L484.89 119.689L495.694 101.335L500.592 124.867L501.829 137.923L485.785 158.374L486.15 153.022L485.457 143.218L480.958 130.984Z" fill="#955A71"/>
<path fill-rule="evenodd" clip-rule="evenodd" d="M495.694 101.335L502.822 124.166L504.013 138.235L485.785 158.374L486.15 153.022L496.236 137.122L497.878 125.965L495.694 101.335Z" fill="#7B546B"/>
<path fill-rule="evenodd" clip-rule="evenodd" d="M434.137 160.052L432.346 162.427L436.632 165.205L485.1 159.069L489.025 154.796L486.15 153.022L483.006 154.717L434.137 160.052Z" fill="white"/>
<path fill-rule="evenodd" clip-rule="evenodd" d="M331.484 139.564L340.206 136.291L343.895 135.764L349.031 137.569L353.684 134.364L362.187 131.163L389.73 131.972L412.973 130.689L420.037 134.005L426.8 142.672L442.502 208.344L441.989 224.077L434.973 241.405L435.283 255.552L437 257.249L435.67 273.341L377.013 286.093L359.413 255.069L345.956 247.595L336.374 234.8L326.354 190.526L331.484 139.564Z" fill="#8C2424"/>
<path fill-rule="evenodd" clip-rule="evenodd" d="M345.034 212.751L349.935 189.193L359.15 183.36L399.229 226.088L401.689 226.266L402.993 228.103L412.928 224.733L415.579 226.146L442.456 209.749L441.989 224.077L428.654 231.099L412.773 228.876L379.727 236.094L372.621 240.86L352.568 229.721L345.034 212.751Z" fill="#741F23"/>
<path fill-rule="evenodd" clip-rule="evenodd" d="M347.021 235.251L345.956 247.595L359.413 255.069L358.599 247.237L367.531 247.947L347.021 235.251Z" fill="#741F23"/>
<path fill-rule="evenodd" clip-rule="evenodd" d="M370.511 264.938L369.655 273.123L372.981 278.987L382.298 272.763L382.17 261.922L370.511 264.938Z" fill="#741F23"/>
<path fill-rule="evenodd" clip-rule="evenodd" d="M362.574 208.94L400.061 228.19L389.054 229.932L375.081 232.84L363.548 229.08L356.906 218.591L358.151 205.403L362.574 208.94Z" fill="#4F0000"/>
<path fill-rule="evenodd" clip-rule="evenodd" d="M364.653 210.579L388.212 227.23L376.744 229.154L368.96 226.218L364.864 218.963L364.653 210.579Z" fill="#E6E6E6"/>
<path fill-rule="evenodd" clip-rule="evenodd" d="M371.4 215.744L380.935 222.829L377.571 225.94L373.241 224.335L371.395 220.464L371.4 215.744Z" fill="#1A1A1A"/>
<path fill-rule="evenodd" clip-rule="evenodd" d="M438.607 204.73L422.905 221.689L416.357 225.896L429.569 227.772L433.708 225.449L437.35 222.532L440.029 210.004L438.607 204.73Z" fill="#4F0000"/>
<path fill-rule="evenodd" clip-rule="evenodd" d="M437.763 206.012L424.958 217.394L423.367 221.979L427.847 224.822L432.2 223.621L435.272 220.723L438.107 210.21L437.763 206.012Z" fill="#E6E6E6"/>
<path fill-rule="evenodd" clip-rule="evenodd" d="M425.827 210.683L434.629 214.298L433.167 218.48L431.828 220.789L428.711 222.526L426.161 219.39L425.827 210.683Z" fill="#1A1A1A"/>
<path fill-rule="evenodd" clip-rule="evenodd" d="M403.511 229.154L414.41 228.142L420.78 228.793L428.654 231.099L429.433 234.714L424.067 233.366L415.007 232.687L424.938 235.435L429.57 238.076L430.368 243.546L428.709 245.634L430.32 254.42L431.481 255.339L432.409 259.357L426.733 267.389L435.67 273.341L392.829 281.654L405.168 271.253L390.712 262.378L389.38 257.307L390.523 255.764L389.919 247.818L384.402 247.788L384.634 242.696L389.367 239.503L404.241 233.443L396.712 234.608L389.288 237.015L380.467 240.356L379.727 236.095L391.45 231.292L403.511 229.154Z" fill="#ED1A26"/>
<path fill-rule="evenodd" clip-rule="evenodd" d="M382.17 261.922L405.984 270.061L415.627 270.32L425.109 268.533L437 257.249L439.334 259.271L444.434 271.74L439.715 288.267L431.921 295.342L421.398 299.635L412.332 299.225L403.156 301.732L386.345 301.247L373.771 297.855L369.478 283.743L373.281 266.985L382.17 261.922Z" fill="#8C2424"/>
<path fill-rule="evenodd" clip-rule="evenodd" d="M382.17 261.922L405.984 270.061L425.109 268.533L437 257.249L439.334 259.271L444.433 271.74L435.541 281.583L420.026 286.586L406.943 288.564L385.078 285.739L377.298 278.248L375.658 266.589L382.17 261.922Z" fill="#ED1A26"/>
<path fill-rule="evenodd" clip-rule="evenodd" d="M428.84 203.273L434.441 191.938L436.766 186.948L446.572 198.627L445.695 206.75L433.69 217.864L425.345 223.024L415.579 226.146L416.099 221.331L428.84 203.273Z" fill="#97292A"/>
<path fill-rule="evenodd" clip-rule="evenodd" d="M412.359 198.642L416.052 179.449L420.037 134.005L431.687 135.034L438.058 159.603L440.226 183.199L445.591 199.645L433.636 212.055L425.533 217.384L416.099 221.331L414.261 210.303L427.695 194.873L415.498 205.915L413.597 205.44L412.359 198.642Z" fill="#ED1A26"/>
<path fill-rule="evenodd" clip-rule="evenodd" d="M399.622 197.405L407.893 198.094L412.403 214.973L413.78 221.243L412.525 226.388L402.993 228.103L403.846 222.745L399.622 197.405Z" fill="#97292A"/>
<path fill-rule="evenodd" clip-rule="evenodd" d="M395.145 193.988L410.13 192.676L412.403 214.973L413.78 221.244L403.846 222.745L395.145 193.988Z" fill="#ED1A26"/>
<path fill-rule="evenodd" clip-rule="evenodd" d="M359.15 183.36L381.042 208.164L401.858 222.609L400.061 228.19L386.776 227.34L360.659 212.199L353.713 193.383L359.15 183.36Z" fill="#97292A"/>
<path fill-rule="evenodd" clip-rule="evenodd" d="M359.15 183.36L355.65 172.442L367.079 179.637L352.347 162.133L343.895 135.764L353.684 134.364L382.712 177.623L387.436 181.872L395.859 203.934L396.321 207.757L382.032 199.392L397.882 211.376L401.858 222.609L387.888 221.449L365.368 206.402L359.15 183.36Z" fill="#ED1A26"/>
<path fill-rule="evenodd" clip-rule="evenodd" d="M388.417 290.456L397.658 294.604L405.301 295.987L398.805 296.008L395.432 296.711L385.597 296.324L382.344 292.396L388.417 290.456Z" fill="#4F0000"/>
<path fill-rule="evenodd" clip-rule="evenodd" d="M434.487 286.168L427.505 291.861L422.728 294.529L426.703 293.653L429.058 292.942L432.617 292.507L437.692 286.678L434.487 286.168Z" fill="#4F0000"/>
<path fill-rule="evenodd" clip-rule="evenodd" d="M362.188 131.163L389.198 128.777L412.973 130.689L419.256 171.007L416.052 179.449L406.77 217.565L382.712 177.623L362.188 131.163Z" fill="#ED1A26"/>
<path fill-rule="evenodd" clip-rule="evenodd" d="M336.374 234.8L345.956 247.595L347.019 235.251L341.039 224.85L326.354 189.931L328.738 208.875L336.374 234.8Z" fill="#8C3C59"/>
<path fill-rule="evenodd" clip-rule="evenodd" d="M358.599 247.237L359.413 255.069L369.655 273.123L370.509 264.938L358.599 247.237Z" fill="#8C3C59"/>
<path fill-rule="evenodd" clip-rule="evenodd" d="M369.478 283.743L373.771 297.855L376.343 289.21L375.841 280.586L372.567 270.127L369.478 283.743Z" fill="#8C3C59"/>
<path fill-rule="evenodd" clip-rule="evenodd" d="M276.272 200.37L267.961 194.822L266.358 186.918L286.541 177.861C297.577 174.982 308.611 172.1 319.647 169.228L337.385 174.869L330.848 184.989L317.003 197.247C307.975 198.718 298.944 200.181 289.917 201.662C285.518 201.325 281.118 200.996 276.718 200.668L276.272 200.37Z" fill="#290000"/>
<path fill-rule="evenodd" clip-rule="evenodd" d="M302.956 186.511L298.143 186.432L281.423 186.802L278.698 182.984L286.272 179.135L319.596 171.315L333.889 175.092L333.013 183.927L327.446 187.631L302.956 186.511Z" fill="#7E1F24"/>
<path fill-rule="evenodd" clip-rule="evenodd" d="M296.698 189.163L281.707 190.753L301.376 184.091L333.278 176.527L330.586 182.849L318.022 191.005L300.673 191.923L296.698 189.163Z" fill="#68171A"/>
<path fill-rule="evenodd" clip-rule="evenodd" d="M269.76 193.612L268.641 188.093L276.404 194.585L288.211 197.672L311.361 194.565L316.874 195.488L289.845 199.641L277.388 198.704L269.76 193.612Z" fill="#8A4D52"/>
<path fill-rule="evenodd" clip-rule="evenodd" d="M289.845 199.641L273.593 194.752L268.641 188.093L286.272 179.135L319.596 171.315L334.277 175.984L335.612 181.563L316.874 195.486L289.845 199.641Z" fill="#8C2424"/>
<path fill-rule="evenodd" clip-rule="evenodd" d="M302.956 186.511L298.143 186.432L281.423 186.802L278.698 182.984L286.272 179.135L319.596 171.315L333.889 175.092L333.013 183.927L327.446 187.631L302.956 186.511Z" fill="#7E1F24"/>
<path fill-rule="evenodd" clip-rule="evenodd" d="M296.698 189.163L281.707 190.753L301.376 184.091L333.278 176.527L330.586 182.849L318.022 191.005L300.673 191.923L296.698 189.163Z" fill="#68171A"/>
<path fill-rule="evenodd" clip-rule="evenodd" d="M269.76 193.612L268.641 188.093L276.404 194.585L288.211 197.672L311.361 194.565L316.874 195.488L289.845 199.641L277.388 198.704L269.76 193.612Z" fill="#8C3C59"/>
<path fill-rule="evenodd" clip-rule="evenodd" d="M331.697 183.85L282.266 182.588C274.669 176.542 267.07 170.495 259.467 164.456C257.222 158.846 254.974 153.238 252.722 147.632L252.934 141.16L263.571 117.071L301.053 109.111L292.033 133.54L293.462 134.25L334.378 136.784L325.09 161.719L334.857 183.929L331.697 183.85Z" fill="#290000"/>
<path fill-rule="evenodd" clip-rule="evenodd" d="M340.206 136.291L292.924 136.228L279.924 129.761L280.434 152.513L288.063 161.72L350.045 165.282L340.206 136.291Z" fill="#D898B3"/>
<path fill-rule="evenodd" clip-rule="evenodd" d="M261.132 163.212L254.926 141.624L264.995 118.821L275.088 134.365L261.132 163.212Z" fill="#955A71"/>
<path fill-rule="evenodd" clip-rule="evenodd" d="M261.132 163.212L254.741 147.272L254.926 141.624L261.305 154.529L261.132 163.212Z" fill="#8C3C59"/>
<path fill-rule="evenodd" clip-rule="evenodd" d="M264.995 118.821L297.905 111.832L279.924 129.761L269.572 133.548L264.995 118.821Z" fill="#CF80A1"/>
<path fill-rule="evenodd" clip-rule="evenodd" d="M261.132 163.212L258.888 149.638L268.449 129.936L297.905 111.832L275.088 134.365L261.132 163.212Z" fill="#7B546B"/>
<path fill-rule="evenodd" clip-rule="evenodd" d="M324.069 190.14L350.045 165.282L340.128 186.237L328.685 208.995L324.069 190.14Z" fill="#7E1F24"/>
<path fill-rule="evenodd" clip-rule="evenodd" d="M336.736 184.174L282.995 180.6L261.132 163.212L261.143 154.943L269.572 133.548L297.905 111.832L284.476 148.205L293.483 162.165L350.045 165.282L336.736 184.174Z" fill="#8C6272"/>
<path fill-rule="evenodd" clip-rule="evenodd" d="M348.252 162.909L350.045 165.282L345.758 168.06L293.487 164.273L286.225 154.064L284.476 148.205L295.583 159.922L348.252 162.909Z" fill="white"/>
<path fill-rule="evenodd" clip-rule="evenodd" d="M439.636 158.887L441.34 181.64L446.572 198.627L445.695 206.75L443.477 208.803L443.944 201.354L439.521 187.108L435.812 187.461L438.445 182.643L436.308 163.282L431.687 135.034L439.636 158.887Z" fill="white"/>
<path fill-rule="evenodd" clip-rule="evenodd" d="M410.927 200.492L413.78 221.244L412.485 221.07L409.834 205.725L410.927 200.492Z" fill="white"/>
<path fill-rule="evenodd" clip-rule="evenodd" d="M394.469 208.795L397.882 211.376L401.858 222.609L400.082 222.462L395.781 211.322L394.469 208.795Z" fill="white"/>
<path fill-rule="evenodd" clip-rule="evenodd" d="M410.998 127.445L416.504 132.347L417.678 160.892L414.022 135.831L411.673 130.776L410.998 127.445Z" fill="white"/>
<path fill-rule="evenodd" clip-rule="evenodd" d="M437 257.249L439.334 259.271L444.433 271.74L441.622 271.499L434.907 259.235L436.151 258.055L433.572 254.907L433.63 238.759L440.347 224.942L442.456 209.749L441.989 224.077L434.973 241.405L435.283 255.552L437 257.249Z" fill="white"/>
<path fill-rule="evenodd" clip-rule="evenodd" d="M474.27 381.235L474.511 373.056L472.202 357.09L468.011 355.518L468.932 377.828L474.27 381.235Z" fill="#8C3C59"/>
<path fill-rule="evenodd" clip-rule="evenodd" d="M464.442 349.373L458.149 324.869L455.881 324.559L460.777 352.805L464.442 349.373Z" fill="#8C3C59"/>
<path fill-rule="evenodd" clip-rule="evenodd" d="M509.466 359.092L513.688 364.987L519.643 385.458L517.394 391.152L509.466 359.092Z" fill="white"/>
<path fill-rule="evenodd" clip-rule="evenodd" d="M99.644 105.556L79.9763 101.167L98.7559 93.9979L123.157 92.1451L126.21 85.5016L138.761 96.1659L144.065 105.95L152.405 115.479L151.645 125.406L146.551 124.125L145.608 115.615L136.476 108.679L105.14 113.286L113.503 108.329L99.644 105.556Z" fill="#ED1A26"/>
<path fill-rule="evenodd" clip-rule="evenodd" d="M98.7559 93.9979L123.157 92.1451L126.21 85.5016L138.761 96.1659L144.065 105.95L152.405 115.479L151.645 125.406L150.223 123.546L150.121 115.58L142.019 106.558L137.221 96.8876L126.971 88.5094L124.545 93.8396L100.811 94.9088L98.7559 93.9979Z" fill="white"/>
<path fill-rule="evenodd" clip-rule="evenodd" d="M186.062 141.153L175.587 137.731L160.698 141.783L165.167 137.915L184.561 131.64L194.72 135.448L186.062 141.153Z" fill="#ED1A26"/>
<path fill-rule="evenodd" clip-rule="evenodd" d="M104.568 168.508L103.195 176.398L97.5161 176.983L99.994 167.341L138.137 128.306L130.097 140.967L104.568 168.508Z" fill="#8C3C59"/>
<path fill-rule="evenodd" clip-rule="evenodd" d="M93.4753 119.169L103.473 117.671L121.295 116.817L130.582 114.998L135.108 116.074L123.386 120.773L107.477 120.823L93.4753 119.169Z" fill="#8C3C59"/>
<path fill-rule="evenodd" clip-rule="evenodd" d="M84.6987 103.736L86.2952 103.612L93.9584 106.575L106.991 109.656L102.534 111.982L93.2728 108.397L84.6987 103.736Z" fill="#8C3C59"/>
<path fill-rule="evenodd" clip-rule="evenodd" d="M122.093 328.004L126.712 312.987L145.38 292.561L131.918 313.953L128.426 326.279L129.616 343.776L120.612 344.067L122.093 328.004Z" fill="#620F12"/>
<path fill-rule="evenodd" clip-rule="evenodd" d="M236.194 221.295L222.004 220.653L219 210.928L225.293 198.208L249.584 200.807L272.972 214.381L278.934 229.084L278.699 235.628L274.241 236.52L260.836 228.999L236.194 221.295Z" fill="#8C2424"/>
<path fill-rule="evenodd" clip-rule="evenodd" d="M240.833 213.088L228.231 211.517L227.281 206.145L230.826 198.777L249.584 200.807L272.972 214.381L271.351 226.106L256.912 218.295L240.833 213.088Z" fill="#ED1A26"/>
<path fill-rule="evenodd" clip-rule="evenodd" d="M365.076 73.6755L365.425 70.9829L395.012 87.5985L421.29 132.002L418.391 131.446L405.336 108.499L393.157 89.1051L365.076 73.6755Z" fill="white"/>
<path fill-rule="evenodd" clip-rule="evenodd" d="M350.018 75.6999L358.206 84.3612L360.956 90.4641L346.951 77.3219L328.892 68.3413L333.469 69.3247L350.018 75.6999Z" fill="white"/>
<path fill-rule="evenodd" clip-rule="evenodd" d="M146.166 281.328L155.6 283.334L182.349 277.25L167.61 273.048L146.166 281.328Z" fill="#620F12"/>
<path fill-rule="evenodd" clip-rule="evenodd" d="M283.533 361.953L276.494 356.815L279.897 344.88L284.206 345.609L283.533 361.953Z" fill="#712632"/>
<path fill-rule="evenodd" clip-rule="evenodd" d="M324.037 357.212L319.012 358.751L313.503 345.385L314.715 340.458L320.813 346.627L324.037 357.212Z" fill="#8C2424"/>
<path fill-rule="evenodd" clip-rule="evenodd" d="M318.631 338.918L306.181 341.851L302.127 325.171L306.334 304.924L309.314 323.384L318.631 338.918Z" fill="#8C2424"/>
<path fill-rule="evenodd" clip-rule="evenodd" d="M273.93 292.098L290.586 291.323L294.443 303.228L278.632 305.68L265.358 304.003L243.961 289.261L245.923 284.856L262.352 290.227L273.93 292.098Z" fill="#ED1A26"/>
<path fill-rule="evenodd" clip-rule="evenodd" d="M269.45 233.832L266.515 240.101L274.967 245.984L272.277 235.419L269.45 233.832Z" fill="#620F12"/>
<defs>
<filter id="filter0_f" x="0.461914" y="0.666748" width="617.538" height="447.182" filterUnits="userSpaceOnUse" color-interpolation-filters="sRGB">
<feFlood flood-opacity="0" result="BackgroundImageFix"/>
<feBlend mode="normal" in="SourceGraphic" in2="BackgroundImageFix" result="shape"/>
<feGaussianBlur stdDeviation="30" result="effect1_foregroundBlur"/>
</filter>
<radialGradient id="paint0_radial" cx="0" cy="0" r="1" gradientUnits="userSpaceOnUse" gradientTransform="translate(309.231 224.258) rotate(98.6145) scale(130.331 231.863)">
<stop stop-color="#BA3232"/>
<stop offset="1" stop-color="white" stop-opacity="0"/>
</radialGradient>
</defs>
</svg>
