<svg width="456" height="305" viewBox="0 0 456 305" fill="none" xmlns="http://www.w3.org/2000/svg">
<path fill-rule="evenodd" clip-rule="evenodd" d="M420.401 272.244L390.169 270.584L256.553 262.231L222.953 260.53L56.0025 263.443L0 273.318L10.6937 279.244L53.0436 279.979L77.3421 280.144L96.6418 283.887L119.681 285.867L65.7506 292.754L64.736 297.284L116.143 304.048L109.11 296.873L164.029 291.966L180.306 293.239L232.892 298.589L292.146 299.117L322.092 294.554L294.547 289.76L322.883 289.072L412.178 292.343L420.401 272.244Z" fill="#4D4D4D" fill-opacity="0.360784"/>
<path d="M295.232 186.069L286.44 170.567L274.671 164.033L265.761 152.13C264.003 144.305 262.219 136.48 260.45 128.66L255.669 114.83L250.898 118.377L226.425 122.141L214.769 121.262L207.042 116.105L205.638 109.195L217.181 103.334L199.546 89.3079C197.566 84.3568 195.582 79.4108 193.592 74.4648L193.777 68.7527L203.165 47.4931L236.24 40.47L228.281 62.0278L229.494 62.6345L270.641 62.691L282.245 61.0304L289.802 58.1872C297.869 57.4726 305.936 56.7528 314.008 56.0484C321.155 56.6139 328.301 57.2001 335.453 57.7707L341.689 60.7013L351.463 61.5651L387.571 55.997L397.118 48.614L407.997 30.1307C411.977 36.8402 415.956 43.5446 419.931 50.2541C421.247 58.033 422.553 65.8119 423.859 73.5959L401.026 101.693L393.17 102.547L394.018 102.963L392.337 109.858L384.825 115.328L373.566 116.845L364.98 114.501L366.46 119.303L365.576 127.483L362.774 130.079L362.378 142.315L356.203 157.56L356.45 168.948L357.422 169.909L359.746 171.925L364.645 183.899L360.178 199.544L352.687 206.341L342.759 210.392L334.635 210.022L326.553 212.228C321.448 212.074 316.342 211.93 311.232 211.786C307.16 210.68 303.083 209.585 299.006 208.49L294.795 194.639L296.311 187.966L295.242 186.079L295.232 186.069Z" fill="#272626"/>
<path d="M213.325 175.169L247.726 193.709L242.703 213.349L245.217 228.927L254.343 244.14L251.443 245.282L255.016 248.886L258.749 260.567L247.592 263.986L242.476 262.058L242.373 266.366L220.168 265.323L212.523 259.739L215.309 249.971L213.746 249.739L213.196 239.919L208.23 194.259C209.191 187.493 210.142 180.722 211.093 173.95L213.33 175.159L213.325 175.169Z" fill="#272626"/>
<path fill-rule="evenodd" clip-rule="evenodd" d="M212.487 176.727L245.664 194.608L240.893 213.256L243.525 229.544L251.746 243.256L248.291 244.613L253.464 249.832L256.518 259.395L247.649 262.115L240.759 259.518L240.646 264.516L220.775 263.58L214.559 259.045L217.567 248.516L215.428 248.202L214.955 239.78L210.009 194.295L212.487 176.727Z" fill="#560000"/>
<path d="M147.453 127.668L151.232 82.9172C157.916 66.2129 164.6 49.5137 171.279 32.8043L203.787 5.8532L229.201 6.56785L240.682 1.24653C246.317 1.04602 251.947 0.850646 257.582 0.655273L271.309 5.9149L293.474 5.02544C302.461 10.0691 311.448 15.1128 320.43 20.1616C328.759 34.2181 337.078 48.2849 345.396 62.3517C335.921 100.439 326.455 138.531 316.954 176.608C310.512 183.092 304.07 189.57 297.628 196.053C287.643 200.254 277.659 204.464 267.679 208.68C262.204 208.701 256.723 208.721 251.247 208.752C236.456 206.814 221.638 204.845 206.836 203.015L175.263 196.881L160.214 183.354L142.06 168.768L147.459 127.663L147.453 127.668Z" fill="#272626"/>
<path d="M83.7365 249.498L90.3637 267.323L92.2043 274.87L74.3175 278.582L65.4846 272.675L59.5515 277.647L40.734 276.161L33.2122 270.397L41.9474 251.122L35.8343 247.868C36.8266 244.87 37.824 241.873 38.8112 238.876L45.68 226.197L42.9911 223.678L56.4666 205.277L66.3432 187.796L73.0681 173.035L75.3972 166.814C77.4743 162.855 79.5463 158.886 81.6182 154.922L84.2815 160.064L86.5591 159.303L105.186 136.316L112.631 104.408L125.315 81.8839L116.05 84.3363L81.3457 112.66L61.9165 113.498L54.7289 100.604L57.2121 90.9481L95.1246 52.1513L95.6079 49.8326L93.9627 48.249L90.1683 48.3673L79.8033 52.5266C74.9602 52.5421 70.1118 52.5472 65.2687 52.5729C59.7211 51.8994 54.1684 51.2619 48.6158 50.6089L57.5258 43.5395L52.1376 41.4521C47.0734 38.6758 41.9937 35.9354 36.9191 33.1745L57.3253 25.3802L78.081 23.807L81.3149 16.7736L94.4305 27.9149L99.1812 36.6809L106.888 45.483L106.117 55.5703L71.3046 94.7887L70.1427 97.2154L70.8008 98.9584L75.9267 98.5162L115.438 64.3158L133.479 58.4804L142.405 61.8222L157.063 56.3673L175.561 38.7529C175.721 65.7605 175.89 92.7682 176.034 119.771C172.826 135.534 169.618 151.292 166.405 167.051L132.214 190.49L108.76 195.827L100.23 203.513L88.6259 221.955L85.6953 232.295L86.8367 249.076L83.7416 249.508L83.7365 249.498Z" fill="#272626"/>
<path fill-rule="evenodd" clip-rule="evenodd" d="M81.3093 248.048L88.6666 267.837L90.0496 273.513L74.6872 276.701L65.3659 270.469L58.97 275.827L41.3968 274.439L35.4123 269.852L44.2503 250.346L37.9881 247.014L40.4559 239.575L47.8955 225.842L45.3557 223.462L57.9418 206.269L67.9366 188.583L74.7129 173.719L77.0265 167.534L81.6178 158.758L83.4172 162.228L87.6178 160.819L106.831 137.112L114.312 105.061L128.209 80.3723L126.322 79.7913L115.237 82.7219L80.6872 110.917L62.934 111.683L56.6256 100.357L58.8106 91.8478L96.7591 53.0099L97.5457 49.231L94.6563 46.4495L89.7977 46.6037L79.4533 50.7528L65.4122 50.7991L53.0574 49.3389L61.0523 42.9945L52.8775 39.8325L41.1449 33.4521L57.7155 27.1231L79.2476 25.4933L81.9468 19.627L93.0213 29.0408L97.7 37.6732L105.057 46.0793L104.389 54.8402L69.8132 93.7912L68.2091 97.128L69.6178 100.835L76.6409 100.228L116.322 65.8787L133.438 60.3415L142.399 63.7039L158.019 57.889L173.813 42.8505L174.26 119.586L164.81 165.986L131.484 188.835L107.88 194.202L107.803 194.29L98.8619 202.346L86.9802 221.225L83.9005 232.099L84.9494 247.539L81.3093 248.048Z" fill="#560000"/>
<path fill-rule="evenodd" clip-rule="evenodd" d="M74.811 258.223L82.4048 275.102L74.6876 276.706L65.3714 270.474L61.8393 257.796L58.9755 275.832L41.4023 274.444L39.3201 266.603L52.3689 251.852L65.7313 253.899L74.8161 258.223H74.811ZM37.9936 247.014L40.4563 239.575L47.8959 225.842L45.3509 223.462L57.9421 206.274L67.937 188.588L74.7133 173.724L77.0269 167.539L81.6181 158.763L83.4176 162.233L87.6181 160.824L106.831 137.118L114.307 105.066L129.993 80.9275L126.322 79.7913L115.232 82.727L80.6824 110.922L62.9293 111.688L56.6157 100.362L58.8007 91.8529L96.7492 53.0202L97.5358 49.2361L94.6464 46.4598L89.7878 46.614L79.4433 50.7631L65.4023 50.8042L53.0475 49.3441L61.0424 42.9996L52.8676 39.8377L41.135 33.4572L57.7056 27.1282L79.2377 25.4932L81.9318 19.6321L93.0063 29.0408L97.6849 37.6732L105.042 46.0844L104.374 54.8453L69.7981 93.7964L68.194 97.1331L69.5976 100.835L76.6259 100.228L116.302 65.8787L133.417 60.3415L142.379 63.6988L157.998 57.8839L173.788 42.8454L144.209 98.3876L138.77 124.213L129.397 152.213L113.973 176.033L100.518 183.143L93.3405 182.865L94.6772 178.68L82.9446 191.22L79.0783 190.68L75.541 183.107L74.5847 188.701L77.6953 197.189L73.9164 206.901L66.1426 234.783L64.374 249.035L45.7931 247.806L37.9628 247.02L37.9936 247.014Z" fill="#710C0D"/>
<path fill-rule="evenodd" clip-rule="evenodd" d="M141.526 79.2771L129.999 80.9224L126.323 79.7913L115.238 82.7219L80.6879 110.917L62.9347 111.683L56.6262 100.357L58.8113 91.8478L96.7598 53.0099L97.5464 49.231L94.657 46.4495L89.7984 46.6037L79.4539 50.7528L65.4128 50.7991L53.0581 49.3389L61.053 42.9945L52.8782 39.8325L41.1456 33.4521L57.7162 27.1231L79.2483 25.4933L81.9475 19.627L93.022 29.0408L97.7007 37.6732L105.058 46.0793L104.39 54.8402L69.8139 93.7912L68.2098 97.128L69.6185 100.835L76.6416 100.228L116.323 65.8787L133.438 60.3415L142.4 63.7039L158.019 57.889L153.402 71.8581L141.526 79.2771Z" fill="#710C0D"/>
<path fill-rule="evenodd" clip-rule="evenodd" d="M141.526 79.2771L129.999 80.9224L126.323 79.7913L115.238 82.7219L80.6882 110.917L62.9351 111.683L79.5571 107.76L110.781 79.1795L120.817 74.0124L131.737 74.3877L158.02 57.889L153.403 71.8581L141.526 79.2771Z" fill="#4F0000"/>
<path fill-rule="evenodd" clip-rule="evenodd" d="M128.21 80.3723L135.263 68.4032L142.4 63.7039L158.019 57.8891L166.302 50.0022L166.729 56.7168L160.487 64.5471L149.274 83.5753L132.102 89.2154L114.312 105.061L128.21 80.3723Z" fill="#8F191D"/>
<path fill-rule="evenodd" clip-rule="evenodd" d="M151.166 175.945L154.975 175.236L146.95 163.282L142.122 147.375L142.466 164.444L144.996 170.254L146.903 173.626L146.944 175.349L142.045 182.418L151.166 175.945Z" fill="#272626"/>
<path fill-rule="evenodd" clip-rule="evenodd" d="M139.916 122.336L152.975 83.3182L172.749 33.884L204.405 7.64241L229.572 8.34678L241.104 2.99975L257.268 2.4342L266.641 7.87377L293.037 6.81465L319.15 21.4778L343.499 62.6294L315.355 175.709L296.615 194.562L267.32 206.912L251.356 206.984L207.171 201.277L169.176 180.747L161.392 182.027L146.317 169.92L143.598 164.084L139.916 122.336Z" fill="#5D0000"/>
<path fill-rule="evenodd" clip-rule="evenodd" d="M158.734 170.151L161.392 182.027L176.086 195.236L177.865 195.009L163.078 174.835L160.168 169.169L158.734 170.151Z" fill="#470000"/>
<path fill-rule="evenodd" clip-rule="evenodd" d="M159.921 121.143L166.934 75.6525L172.749 33.884L204.404 7.64241L229.571 8.34678L241.103 2.99975L257.268 2.4342L266.64 7.87377L293.036 6.81465L319.149 21.4778L343.499 62.6294L315.355 175.709L296.614 194.562L267.319 206.912L251.355 206.984L207.17 201.277L188.06 176.228L168.574 161.719L159.921 121.143Z" fill="#5D0000"/>
<path fill-rule="evenodd" clip-rule="evenodd" d="M172.075 77.3748L160.487 64.5471L172.749 33.884L204.404 7.64241L229.571 8.34678L241.104 2.99975L257.268 2.4342L266.641 7.87377L293.037 6.81465L319.15 21.4778L343.499 62.6294L209.068 76.4237L178.615 78.9584L172.075 77.3748Z" fill="#770000"/>
<path fill-rule="evenodd" clip-rule="evenodd" d="M251.355 206.984L230.687 204.315L215.859 202.896L214.97 161.267L234.677 199.57L247.438 197.318L252.235 190.213L241.417 180.572L251.669 182.871L258.744 181.992L265.762 163.112L242.559 147.668L237.15 142.156L251.438 147.966L257.417 146.449L250.517 127.426L243.52 126.316L233.762 130.927L230.127 134.67L232.003 139.786L222.332 140.588L225.582 131.966L224.769 126.717L224.903 118.614L245.9 107.318L289.972 129.621L295.726 146.722L303.972 169.868L296.615 194.562L267.319 206.912L251.355 206.984Z" fill="#500000"/>
<path fill-rule="evenodd" clip-rule="evenodd" d="M296.292 188.233L295.248 196.068L302.672 199.39L350.394 205.338L299.341 182.552L288.184 168.033L277.263 159.138L267.402 151.375L274.086 162.398L287.361 170.943L296.292 188.233Z" fill="#272626"/>
<path d="M134.801 215.57L141.927 193.919L156.981 196.254L158.78 195.919L157.474 193.405L167.016 187.467L174.374 193.256L161.567 175.786C158.636 170.058 155.603 164.346 152.739 158.598L147.268 145.734C146.795 141.637 146.312 137.544 145.829 133.447L147.824 126.192C163.942 124.249 180.06 122.31 196.178 120.377C202.281 125.169 208.384 129.966 214.487 134.758L212.466 145.519L215.417 156.747L215.016 160.958C222.178 177.832 227.016 195.554 232.661 212.984L224.656 232.084L207.402 238.613C200.914 238.243 194.43 237.873 187.942 237.508L175.135 232.341L170.749 230.881L161.695 231.657L160.919 227.58L140.739 227.266L134.559 216.295L134.806 215.554L134.801 215.57Z" fill="#272626"/>
<path fill-rule="evenodd" clip-rule="evenodd" d="M136.487 216.125L143.145 195.894L157.016 198.048L161.453 197.22L159.808 194.043L166.903 189.631L174.307 195.457L185.988 194.002L192.908 200.572L230.774 212.912L223.319 230.711L207.129 236.84L188.337 235.77L175.798 230.711L170.949 229.097L163.134 229.77L162.389 225.852L141.787 225.534L136.487 216.125Z" fill="#6D0D0E"/>
<path fill-rule="evenodd" clip-rule="evenodd" d="M136.487 216.125L143.145 195.894L157.016 198.048L161.453 197.22L155.926 213.523L160.224 221.117L165.839 222.685L165.145 226.063L171.083 226.495L196.893 230.793L218.574 226.691L230.774 212.912L223.319 230.711L207.129 236.84L188.337 235.77L175.798 230.711L170.949 229.097L163.134 229.77L162.389 225.852L141.787 225.534L136.487 216.125Z" fill="#560000"/>
<path fill-rule="evenodd" clip-rule="evenodd" d="M154.379 157.904L149.083 145.616L145.325 130.902L151.376 108.059L161.15 79.6679L181.936 78.1306L203.885 104.819L201.761 114.382L195.741 122.562L212.769 146.675L213.216 161.246L205.474 156.66L187.736 153.59L204.805 159.292L216.682 169.411L225.53 213.39L206.024 222.135L184.625 211.179L170.656 177.781L159.972 168.459L154.379 157.904Z" fill="#6D0D0E"/>
<path fill-rule="evenodd" clip-rule="evenodd" d="M170.646 159.436L170.179 153.611L187.952 151.683L205.757 156.053L213.217 161.246L216.682 169.411L230.775 212.912L222.014 218.104L209.752 217.997L198.009 213.015L185.202 202.346L183.577 197.811L185.988 194.002L193.762 196.84L187.49 192.989L189.248 189.539L170.646 159.436Z" fill="#8C2424"/>
<path fill-rule="evenodd" clip-rule="evenodd" d="M181.649 166.207L177.824 153.41L188.636 151.853L205.474 156.66L213.217 161.246L216.683 169.41L226.996 201.251L224.724 203.745L211.058 203.945L200.58 195.791L181.649 166.207Z" fill="#E10000"/>
<path fill-rule="evenodd" clip-rule="evenodd" d="M188.759 134.675L187.448 128.974L198.754 118.475L215.124 127.416L218.286 138.665L217.818 151.616L213.217 161.246L208.014 140.819L188.759 134.675Z" fill="#6D0D0E"/>
<path fill-rule="evenodd" clip-rule="evenodd" d="M177.839 194.943L163.079 174.835L154.379 157.904L163.433 160.408L173.49 182.603L177.839 194.943Z" fill="#712632"/>
<path fill-rule="evenodd" clip-rule="evenodd" d="M154.379 157.904L149.084 145.616L153.798 140.269L162.497 146.125L163.161 154.244L154.379 157.904Z" fill="#712632"/>
<path fill-rule="evenodd" clip-rule="evenodd" d="M41.3968 274.438L35.4123 269.852L44.2503 250.346L52.3634 251.852L41.3968 274.438Z" fill="#7F3247"/>
<path fill-rule="evenodd" clip-rule="evenodd" d="M45.8191 247.801L37.9888 247.014L40.4567 239.575L47.8962 225.842L55.5774 224.207L45.8191 247.801Z" fill="#7F3247"/>
<path fill-rule="evenodd" clip-rule="evenodd" d="M47.896 225.842L45.3562 223.462L50.9191 215.863L59.8291 202.937L67.9371 188.583L74.7134 173.719L77.027 167.534L81.6183 158.758L83.4177 162.228L87.6182 160.819L106.832 137.112L114.312 105.061L119.253 101.493L112.965 137.771L96.7699 159.986L83.9422 174.562L76.2712 180.182L77.4435 172.902L67.9885 198.829L55.4847 227.169L47.896 225.842Z" fill="#7F3247"/>
<path fill-rule="evenodd" clip-rule="evenodd" d="M161.237 120.264L145.325 130.902L151.098 105.565L160.445 81.7194L174.096 91.5291L165.253 106.748L161.237 120.264Z" fill="#712632"/>
<path fill-rule="evenodd" clip-rule="evenodd" d="M155.14 77.9045L165.829 51.1847L173.258 41.848L187.289 46.8403L192.251 56.0999L186.004 78.3466L182.364 78.65L167.983 87.1384L155.14 77.9045Z" fill="#8F191D"/>
<path fill-rule="evenodd" clip-rule="evenodd" d="M180.142 223.76L160.225 221.117L155.926 213.524L160.692 203.657L176.194 204.125L183.633 213.236L195.325 216.66L180.142 223.76Z" fill="#712632"/>
<path fill-rule="evenodd" clip-rule="evenodd" d="M154.106 217.657L136.487 216.125L143.145 195.894L158.281 200.613L152.636 210.963L154.106 217.657Z" fill="#712632"/>
<path d="M348.785 110.912L352.049 117.848L358.738 128.742L367.376 149.853L373.741 155.148C376.373 158.238 379.006 161.338 381.633 164.434L386.533 178.799L413.921 218.068L425.468 225.261C428.969 229.061 432.46 232.87 435.957 236.675L433.874 245.755L455.663 275.749L452.45 280.855L440.964 284.474L430.604 283.163L431.016 284.371L428.352 291.117L406.332 291.076L399.921 289.605L382.646 278.582L381.844 259.143L375.607 256.803L371.191 231.338L356.188 213.102L337.381 195.719L346.034 105.066L348.785 110.907V110.912Z" fill="#272626"/>
<path fill-rule="evenodd" clip-rule="evenodd" d="M347.181 111.668L357.165 129.565L365.906 150.927L369.674 157.472L377.263 166.403L382.132 180.67L409.88 220.891L417.222 225.133L434.018 237.189L431.036 250.192L427.057 255.297L418.81 252.49L403.571 260.053L390.954 260.675L377.181 255.508L372.862 230.583L357.489 211.899L339.227 195.02L347.181 111.668Z" fill="#741F23"/>
<path fill-rule="evenodd" clip-rule="evenodd" d="M347.18 111.668L357.165 129.565L365.905 150.927L369.674 157.472L377.263 166.403L382.132 180.67L409.879 220.891L417.221 225.133L434.018 237.189L431.036 250.192L427.057 255.297L418.81 252.49L403.489 260.151L399.535 250.325L392.62 253.544L385.967 250.474L383.093 251.102L380.82 238.022L379.221 237.508L376.476 227.873L359.9 203.164L353.175 179.616L347.18 111.668Z" fill="#8C2424"/>
<path fill-rule="evenodd" clip-rule="evenodd" d="M354.409 157.205L344.857 167.112L345.361 203.698L349.88 206.593L352.615 205.601L359.7 199.364L364.049 184.161L359.001 172.362L355.612 169.446L354.409 157.205Z" fill="#272626"/>
<path fill-rule="evenodd" clip-rule="evenodd" d="M393.175 251.169L392.064 255.919L421.925 246.644L444.419 272.243L445.447 277.729L440.794 282.67L421.905 280.279L413.103 286.891L406.547 289.312L400.604 287.945L384.378 277.59L383.566 257.904L386.136 250.387L393.175 251.169Z" fill="#741F23"/>
<path fill-rule="evenodd" clip-rule="evenodd" d="M394.923 252.69L404.362 243.4L421.925 246.644L444.419 272.243L422.882 265.966L433.457 281.744L421.905 280.279L413.103 286.891L406.547 289.312L400.604 287.945L394.83 282.485L390.954 260.675L394.923 252.69Z" fill="#8C2424"/>
<path fill-rule="evenodd" clip-rule="evenodd" d="M362.496 155.832L365.905 150.927L372.47 156.393L380.059 165.323L384.928 179.596L412.681 219.385L424.326 226.639L434.018 237.189L421.072 237.765L401.026 243.287L393.175 251.169L386.136 250.387L384.763 237.163L388.625 231.755L394.352 227.806L388.26 228.881L383.931 231.431L369.257 210.958L385.966 221.045L388.984 220.356L370.743 204.516L364.671 193.333L372.167 185.945L376.326 182.367L365.843 179.632L360.075 168.511L362.496 155.832Z" fill="#E10000"/>
<path fill-rule="evenodd" clip-rule="evenodd" d="M365.088 152.11L365.905 150.927L372.471 156.393L380.06 165.323L384.928 179.596L412.682 219.385L424.327 226.639L434.018 237.189L429.828 237.374L422.275 228.757L409.88 220.891L383.011 179.59L377.263 166.403L371.036 159.097L365.088 152.11Z" fill="white"/>
<path fill-rule="evenodd" clip-rule="evenodd" d="M397.91 264.012L398.686 253.883L403.56 244.886L419.499 239.102L427.128 239.487L453.524 275.821L451.298 279.359L440.794 282.67L422.882 265.965L429.128 284.32L427.144 289.348L406.548 289.312L397.91 264.012Z" fill="#E10000"/>
<path fill-rule="evenodd" clip-rule="evenodd" d="M423.314 239.297L427.129 239.487L453.525 275.821L451.298 279.359L423.314 239.297Z" fill="white"/>
<path fill-rule="evenodd" clip-rule="evenodd" d="M206.744 59.4726L189.171 37.0973L172.749 33.884L204.405 7.64241L229.572 8.34678L241.104 2.99976L257.803 8.05372L266.641 7.87377L272.353 7.64755L314.332 22.2799L338.111 60.9687L300.456 176.598L288.451 141.699L274.137 114.388L252.595 95.3542L218.446 92.6858L206.744 59.4726Z" fill="#8F191D"/>
<path fill-rule="evenodd" clip-rule="evenodd" d="M290.99 17.4933L273.458 7.60133L293.037 6.8147L319.15 21.4779L343.499 62.6294L320.019 63.0407L313.155 54.4958L325.556 43.0099L317.705 37.0922L301.777 31.0357L290.99 17.4933Z" fill="#E10000"/>
<path fill-rule="evenodd" clip-rule="evenodd" d="M272.178 26.5575L257.731 12.6295L241.104 2.99975L257.268 2.4342L269.33 7.04601L284.178 12.8198L290.451 17.2671L298.255 30.7477L299.304 32.5575L285.973 32.5009L277.793 35.2464L272.178 26.5575Z" fill="#E10000"/>
<path fill-rule="evenodd" clip-rule="evenodd" d="M293.222 74.3929L266.749 73.308L264.559 69.1178L267.875 59.0304L281.458 49.4624L270.97 53.5446L262.728 59.2361L256.25 56.2695L267.402 42.4701L287.335 34.4187L308.188 35.2053L325.556 43.0099L339.278 70.2849L335.437 81.5805L319.062 76.2438L293.222 74.3929Z" fill="#E10000"/>
<path fill-rule="evenodd" clip-rule="evenodd" d="M242.409 34.3313L219.818 17.8224L204.404 7.64246L229.571 8.34682L249.206 9.16944L258.872 13.8635L264.157 21.2465L252.8 22.3056L240.08 22.9586L268.636 25.8326L277.037 35.3493L265.53 42.7118L254.487 54.5986L242.409 34.3313Z" fill="#E10000"/>
<path fill-rule="evenodd" clip-rule="evenodd" d="M373.668 115.025V115.02V115.025L384.141 113.616L390.758 108.794L391.951 103.909L377.601 96.8915L359.026 90.6602L346.517 95.4416L345.144 100.388L360.193 111.704L373.668 115.025Z" fill="#97292A"/>
<path fill-rule="evenodd" clip-rule="evenodd" d="M386.6 106.053L389.026 106.156L391.952 103.909L377.602 96.8915L359.026 90.6602L346.517 95.4416L352.214 94.5265L369.854 100.053L386.6 106.053Z" fill="#E10000"/>
<path fill-rule="evenodd" clip-rule="evenodd" d="M372.255 103.185L373.689 100.989L388.183 101.472L392.728 98.9532L386.563 95.9403L359.026 90.6602L346.882 94.6396L349.293 101.277L372.255 103.185Z" fill="#7E1F24"/>
<path fill-rule="evenodd" clip-rule="evenodd" d="M368.414 106.167L380.893 106.856L364.728 101.946L347.33 95.8684L349.294 101.277L359.438 107.832L364.959 108.773L368.414 106.167Z" fill="#68171A"/>
<path fill-rule="evenodd" clip-rule="evenodd" d="M350.275 105.611L400.1 99.9969L421.972 73.087L411.787 53.3441L401.607 64.1975L389.129 80.8607L340.841 81.7965L350.275 105.611Z" fill="#8C6272"/>
<path fill-rule="evenodd" clip-rule="evenodd" d="M415.334 66.1615L421.972 73.0869L418.229 50.8608L407.992 33.6012L401.607 64.1975L415.334 66.1615Z" fill="white"/>
<path fill-rule="evenodd" clip-rule="evenodd" d="M351.51 63.3388L388.276 57.6679L398.887 55.5497L405.463 47.3286L400.841 79.9917L396.034 82.7629L358.152 87.421L348.944 82.3671L351.51 63.3388Z" fill="#D898B3"/>
<path fill-rule="evenodd" clip-rule="evenodd" d="M394.99 59.7656L388.275 57.668L398.46 49.7965L407.992 33.6012L412.316 54.3672L413.406 65.889L399.247 83.9352L399.571 79.2103L398.959 70.5574L394.99 59.7656Z" fill="#955A71"/>
<path fill-rule="evenodd" clip-rule="evenodd" d="M407.992 33.6012L414.285 53.7451L415.334 66.1615L399.247 83.9352L399.571 79.2103L408.471 65.1795L409.92 55.3338L407.992 33.6012Z" fill="#7B546B"/>
<path fill-rule="evenodd" clip-rule="evenodd" d="M353.674 85.416L352.091 87.5085L355.875 89.9609L398.646 84.5471L402.106 80.7784L399.571 79.2103L396.795 80.7065L353.674 85.416Z" fill="white"/>
<path fill-rule="evenodd" clip-rule="evenodd" d="M263.089 67.3337L270.785 64.4494L274.04 63.9816L278.569 65.5754L282.677 62.7476L290.184 59.9199L314.487 60.6345L334.996 59.5034L341.232 62.4289L347.196 70.0792L361.052 128.033L360.605 141.914L354.41 157.205L354.682 169.688L356.199 171.184L355.027 185.385L303.263 196.639L287.736 169.261L275.86 162.665L267.402 151.375L258.559 112.305L263.089 67.3337Z" fill="#8C2424"/>
<path fill-rule="evenodd" clip-rule="evenodd" d="M275.042 131.92L279.371 111.128L287.5 105.981L322.867 143.688L325.042 143.848L326.188 145.467L334.96 142.49L337.299 143.74L361.016 129.267L360.605 141.914L348.836 148.11L334.821 146.146L305.659 152.516L299.386 156.722L281.695 146.896L275.042 131.92Z" fill="#741F23"/>
<path fill-rule="evenodd" clip-rule="evenodd" d="M276.795 151.776L275.86 162.665L287.736 169.261L287.016 162.351L294.898 162.979L276.795 151.776Z" fill="#741F23"/>
<path fill-rule="evenodd" clip-rule="evenodd" d="M297.525 177.971L296.769 185.194L299.705 190.367L307.926 184.876L307.818 175.308L297.525 177.971Z" fill="#741F23"/>
<path fill-rule="evenodd" clip-rule="evenodd" d="M290.523 128.557L323.602 145.544L313.89 147.076L301.561 149.647L291.381 146.326L285.52 137.071L286.62 125.436L290.523 128.557Z" fill="#4F0000"/>
<path fill-rule="evenodd" clip-rule="evenodd" d="M292.358 130.002L313.145 144.696L303.026 146.393L296.158 143.801L292.543 137.4L292.358 130.002Z" fill="#E6E6E6"/>
<path fill-rule="evenodd" clip-rule="evenodd" d="M298.311 134.557L306.723 140.809L303.756 143.56L299.936 142.141L298.306 138.727L298.311 134.557Z" fill="#1A1A1A"/>
<path fill-rule="evenodd" clip-rule="evenodd" d="M357.617 124.84L343.761 139.807L337.983 143.519L349.643 145.174L353.294 143.123L356.507 140.552L358.872 129.493L357.617 124.84Z" fill="#4F0000"/>
<path fill-rule="evenodd" clip-rule="evenodd" d="M356.872 125.971L345.571 136.017L344.168 140.064L348.121 142.573L351.962 141.508L354.677 138.953L357.175 129.678L356.872 125.971Z" fill="#E6E6E6"/>
<path fill-rule="evenodd" clip-rule="evenodd" d="M346.337 130.094L354.106 133.282L352.816 136.974L351.633 139.01L348.882 140.542L346.636 137.776L346.337 130.094Z" fill="#1A1A1A"/>
<path fill-rule="evenodd" clip-rule="evenodd" d="M326.646 146.393L336.265 145.498L341.885 146.074L348.836 148.11L349.52 151.297L344.785 150.11L336.79 149.513L345.556 151.935L349.643 154.264L350.348 159.092L348.882 160.937L350.307 168.691L351.33 169.498L352.147 173.045L347.139 180.135L355.026 185.385L317.222 192.721L328.111 183.544L315.355 175.709L314.178 171.236L315.186 169.873L314.651 162.86L309.782 162.84L309.988 158.341L314.168 155.524L327.294 150.177L320.646 151.205L314.096 153.328L306.312 156.279L305.659 152.516L316.003 148.279L326.646 146.393Z" fill="#E10000"/>
<path fill-rule="evenodd" clip-rule="evenodd" d="M307.818 175.308L328.831 182.49L337.34 182.722L345.705 181.143L356.199 171.184L358.26 172.968L362.759 183.971L358.595 198.557L351.715 204.799L342.43 208.588L334.43 208.228L326.333 210.439L311.5 210.012L300.405 207.02L296.615 194.562L299.973 179.776L307.818 175.308Z" fill="#8C2424"/>
<path fill-rule="evenodd" clip-rule="evenodd" d="M307.819 175.308L328.831 182.49L345.705 181.143L356.199 171.184L358.261 172.968L362.759 183.971L354.914 192.66L341.222 197.071L329.675 198.819L310.379 196.326L303.515 189.714L302.07 179.426L307.819 175.308Z" fill="#E10000"/>
<path fill-rule="evenodd" clip-rule="evenodd" d="M349 123.555L353.941 113.549L355.993 109.148L364.646 119.457L363.869 126.624L353.278 136.429L345.916 140.984L337.299 143.74L337.756 139.488L349 123.555Z" fill="#97292A"/>
<path fill-rule="evenodd" clip-rule="evenodd" d="M334.456 119.467L337.715 102.532L341.232 62.4288L351.51 63.3389L357.134 85.02L359.047 105.837L363.782 120.352L353.232 131.303L346.08 136.007L337.757 139.488L336.132 129.76L347.988 116.141L337.227 125.884L335.546 125.467L334.456 119.467Z" fill="#E10000"/>
<path fill-rule="evenodd" clip-rule="evenodd" d="M323.216 118.377L330.512 118.984L334.491 133.879L335.71 139.411L334.599 143.95L326.188 145.467L326.944 140.737L323.216 118.377Z" fill="#97292A"/>
<path fill-rule="evenodd" clip-rule="evenodd" d="M319.263 115.359L332.486 114.202L334.491 133.878L335.71 139.411L326.944 140.737L319.263 115.359Z" fill="#E10000"/>
<path fill-rule="evenodd" clip-rule="evenodd" d="M287.499 105.981L306.821 127.873L325.191 140.619L323.602 145.544L311.88 144.794L288.831 131.431L282.702 114.83L287.499 105.981Z" fill="#97292A"/>
<path fill-rule="evenodd" clip-rule="evenodd" d="M287.499 105.981L284.414 96.3464L294.497 102.696L281.499 87.2513L274.039 63.9815L282.677 62.7476L308.291 100.922L312.461 104.67L319.895 124.136L320.301 127.508L307.695 120.13L321.679 130.706L325.191 140.619L312.862 139.596L292.99 126.315L287.499 105.981Z" fill="#E10000"/>
<path fill-rule="evenodd" clip-rule="evenodd" d="M313.33 200.49L321.484 204.151L328.224 205.369L322.497 205.39L319.52 206.007L310.836 205.667L307.967 202.202L313.33 200.49Z" fill="#4F0000"/>
<path fill-rule="evenodd" clip-rule="evenodd" d="M353.982 196.706L347.823 201.729L343.602 204.084L347.113 203.308L349.19 202.68L352.332 202.3L356.81 197.153L353.982 196.706Z" fill="#4F0000"/>
<path fill-rule="evenodd" clip-rule="evenodd" d="M290.183 59.92L314.014 57.8171L334.996 59.5035L340.538 95.0818L337.715 102.532L329.52 136.167L308.291 100.922L290.183 59.92Z" fill="#E10000"/>
<path fill-rule="evenodd" clip-rule="evenodd" d="M267.402 151.375L275.86 162.665L276.795 151.776L271.52 142.593L258.559 111.781L260.662 128.501L267.402 151.375Z" fill="#8C3C59"/>
<path fill-rule="evenodd" clip-rule="evenodd" d="M287.016 162.351L287.736 169.261L296.769 185.195L297.525 177.971L287.016 162.351Z" fill="#8C3C59"/>
<path fill-rule="evenodd" clip-rule="evenodd" d="M296.615 194.562L300.405 207.02L302.672 199.39L302.23 191.781L299.34 182.552L296.615 194.562Z" fill="#8C3C59"/>
<path d="M214.364 120.994L207.032 116.1L205.618 109.123L223.428 101.133C233.166 98.5932 242.903 96.0482 252.641 93.5135L268.297 98.4904L262.528 107.421L250.312 118.238C242.343 119.539 234.379 120.83 226.41 122.136C222.528 121.837 218.646 121.549 214.759 121.256L214.364 120.994Z" fill="#272626"/>
<path fill-rule="evenodd" clip-rule="evenodd" d="M237.91 108.763L233.664 108.691L218.908 109.02L216.507 105.652L223.191 102.254L252.594 95.3542L265.211 98.6859L264.435 106.48L259.525 109.75L237.91 108.763Z" fill="#7E1F24"/>
<path fill-rule="evenodd" clip-rule="evenodd" d="M232.389 111.102L219.16 112.506L236.518 106.629L264.672 99.9507L262.297 105.529L251.207 112.727L235.896 113.539L232.389 111.102Z" fill="#68171A"/>
<path fill-rule="evenodd" clip-rule="evenodd" d="M208.621 115.03L207.633 110.161L214.482 115.889L224.903 118.614L245.33 115.868L250.194 116.686L226.343 120.352L215.351 119.524L208.621 115.03Z" fill="#8A4D52"/>
<path fill-rule="evenodd" clip-rule="evenodd" d="M226.343 120.352L212.004 116.038L207.633 110.161L223.191 102.254L252.595 95.3542L265.551 99.4725L266.728 104.398L250.194 116.686L226.343 120.352Z" fill="#8C2424"/>
<path fill-rule="evenodd" clip-rule="evenodd" d="M237.91 108.763L233.664 108.691L218.908 109.02L216.507 105.652L223.191 102.254L252.594 95.3542L265.211 98.6859L264.435 106.48L259.525 109.75L237.91 108.763Z" fill="#7E1F24"/>
<path fill-rule="evenodd" clip-rule="evenodd" d="M232.389 111.102L219.16 112.506L236.518 106.629L264.672 99.9507L262.297 105.529L251.207 112.727L235.896 113.539L232.389 111.102Z" fill="#68171A"/>
<path fill-rule="evenodd" clip-rule="evenodd" d="M208.621 115.03L207.633 110.161L214.482 115.889L224.903 118.614L245.33 115.868L250.194 116.686L226.343 120.352L215.351 119.524L208.621 115.03Z" fill="#8C3C59"/>
<path d="M263.273 106.413L219.654 105.303C212.949 99.9661 206.245 94.6293 199.536 89.3029C197.556 84.3517 195.572 79.4057 193.582 74.4597L193.767 68.7477L203.155 47.4881L236.23 40.465L228.271 62.0227L229.53 62.65L265.638 64.8865L257.443 86.8915L266.06 106.49L263.273 106.418V106.413Z" fill="#272626"/>
<path fill-rule="evenodd" clip-rule="evenodd" d="M270.785 64.4494L229.062 64.3928L217.587 58.6859L218.039 78.763L224.769 86.8863L279.468 90.0277L270.785 64.4494Z" fill="#D898B3"/>
<path fill-rule="evenodd" clip-rule="evenodd" d="M201.006 88.2025L195.53 69.1537L204.415 49.0304L213.319 62.7476L201.006 88.2025Z" fill="#955A71"/>
<path fill-rule="evenodd" clip-rule="evenodd" d="M201.006 88.2026L195.366 74.1358L195.53 69.1538L201.16 80.542L201.006 88.2026Z" fill="#8C3C59"/>
<path fill-rule="evenodd" clip-rule="evenodd" d="M204.415 49.0304L233.459 42.8607L217.587 58.6859L208.451 62.0278L204.415 49.0304Z" fill="#CF80A1"/>
<path fill-rule="evenodd" clip-rule="evenodd" d="M201.006 88.2025L199.027 76.2231L207.464 58.8401L233.459 42.8607L213.32 62.7475L201.006 88.2025Z" fill="#7B546B"/>
<path fill-rule="evenodd" clip-rule="evenodd" d="M256.543 111.966L279.468 90.0277L270.713 108.521L260.615 128.603L256.543 111.966Z" fill="#7E1F24"/>
<path fill-rule="evenodd" clip-rule="evenodd" d="M267.721 106.701L220.297 103.549L201.006 88.2025L201.016 80.9069L208.451 62.0278L233.458 42.8607L221.602 74.9583L229.551 87.277L279.469 90.0277L267.721 106.701Z" fill="#8C6272"/>
<path fill-rule="evenodd" clip-rule="evenodd" d="M277.885 87.9352L279.468 90.0277L275.684 92.4802L229.556 89.1383L223.15 80.1306L221.602 74.9584L231.407 85.2977L277.885 87.9352Z" fill="white"/>
<path fill-rule="evenodd" clip-rule="evenodd" d="M358.527 84.3876L360.029 104.465L364.646 119.457L363.869 126.624L361.916 128.434L362.327 121.863L358.425 109.292L355.15 109.601L357.473 105.349L355.587 88.2642L351.509 63.3389L358.527 84.3876Z" fill="white"/>
<path fill-rule="evenodd" clip-rule="evenodd" d="M333.191 121.102L335.71 139.411L334.569 139.262L332.23 125.719L333.191 121.102Z" fill="white"/>
<path fill-rule="evenodd" clip-rule="evenodd" d="M318.667 128.429L321.679 130.706L325.191 140.619L323.623 140.485L319.823 130.66L318.667 128.429Z" fill="white"/>
<path fill-rule="evenodd" clip-rule="evenodd" d="M333.253 56.6396L338.111 60.9687L339.15 86.1563L335.921 64.0432L333.849 59.5805L333.253 56.6396Z" fill="white"/>
<path fill-rule="evenodd" clip-rule="evenodd" d="M356.199 171.184L358.26 172.968L362.759 183.971L360.276 183.76L354.353 172.938L355.448 171.899L353.175 169.117L353.227 154.871L359.155 142.675L361.016 129.267L360.605 141.914L354.409 157.205L354.682 169.688L356.199 171.184Z" fill="white"/>
<path fill-rule="evenodd" clip-rule="evenodd" d="M389.087 280.598L389.298 273.379L387.262 259.287L383.566 257.904L384.378 277.59L389.087 280.598Z" fill="#8C3C59"/>
<path fill-rule="evenodd" clip-rule="evenodd" d="M380.414 252.48L374.861 230.855L372.861 230.583L377.18 255.508L380.414 252.48Z" fill="#8C3C59"/>
<path fill-rule="evenodd" clip-rule="evenodd" d="M420.147 261.055L423.874 266.258L429.129 284.32L427.144 289.348L420.147 261.055Z" fill="white"/>
<path fill-rule="evenodd" clip-rule="evenodd" d="M58.5028 37.3236L41.1456 33.4521L57.7162 27.1231L79.2483 25.4933L81.9475 19.627L93.022 29.0408L97.7007 37.6732L105.058 46.0793L104.39 54.8402L99.896 53.7091L99.0631 46.2027L91.0066 40.0793L63.3512 44.1462L70.729 39.7708L58.5028 37.3236Z" fill="#E10000"/>
<path fill-rule="evenodd" clip-rule="evenodd" d="M57.7156 27.1231L79.2477 25.4933L81.9469 19.627L93.0214 29.0408L97.7001 37.6732L105.057 46.0793L104.389 54.8402L103.134 53.2001L103.042 46.1719L95.8954 38.2079L91.659 29.6783L82.6153 22.2799L80.4765 26.9843L59.5305 27.9303L57.7156 27.1231Z" fill="white"/>
<path fill-rule="evenodd" clip-rule="evenodd" d="M134.759 68.7373L125.515 65.7193L112.379 69.2926L116.322 65.8787L133.438 60.3414L142.399 63.7039L134.759 68.7373Z" fill="#E10000"/>
<path fill-rule="evenodd" clip-rule="evenodd" d="M62.8473 92.8761L61.634 99.8375L56.6263 100.357L58.8113 91.8478L92.4719 57.4006L85.3768 68.5728L62.8473 92.8761Z" fill="#8C3C59"/>
<path fill-rule="evenodd" clip-rule="evenodd" d="M53.058 49.3389L61.8806 48.0176L77.6081 47.2618L85.8034 45.6577L89.7983 46.6037L79.4538 50.7528L65.4127 50.7991L53.058 49.3389Z" fill="#8C3C59"/>
<path fill-rule="evenodd" clip-rule="evenodd" d="M45.3153 35.7194L46.7241 35.6115L53.485 38.2233L64.9862 40.9431L61.0531 42.9945L52.8783 39.8325L45.3153 35.7194Z" fill="#8C3C59"/>
<path fill-rule="evenodd" clip-rule="evenodd" d="M78.3126 233.621L82.3897 220.372L98.8627 202.346L86.9809 221.225L83.9013 232.099L84.9501 247.539L77.0067 247.796L78.3126 233.621Z" fill="#620F12"/>
<path fill-rule="evenodd" clip-rule="evenodd" d="M179.001 139.457L166.477 138.891L163.824 130.31L169.381 119.087L190.816 121.38L211.453 133.359L216.713 146.331L216.507 152.105L212.574 152.891L200.744 146.259L179.001 139.457Z" fill="#8C2424"/>
<path fill-rule="evenodd" clip-rule="evenodd" d="M183.094 132.218L171.973 130.83L171.135 126.089L174.261 119.585L190.816 121.38L211.453 133.359L210.024 143.704L197.279 136.809L183.094 132.218Z" fill="#E10000"/>
<path fill-rule="evenodd" clip-rule="evenodd" d="M292.728 9.19515L293.037 6.8147L319.15 21.4779L342.337 60.6603L339.777 60.1718L328.255 39.9251L317.509 22.8095L292.728 9.19515Z" fill="white"/>
<path fill-rule="evenodd" clip-rule="evenodd" d="M279.442 10.9791L286.666 18.6192L289.093 24.0074L276.733 12.4084L260.8 4.4856L264.841 5.35449L279.442 10.9791Z" fill="white"/>
<path fill-rule="evenodd" clip-rule="evenodd" d="M99.5563 192.434L107.88 194.202L131.484 188.835L118.477 185.128L99.5563 192.434Z" fill="#620F12"/>
<path fill-rule="evenodd" clip-rule="evenodd" d="M220.775 263.58L214.559 259.045L217.567 248.516L221.366 249.158L220.775 263.58Z" fill="#712632"/>
<path fill-rule="evenodd" clip-rule="evenodd" d="M256.518 259.395L252.081 260.757L247.222 248.958L248.291 244.613L253.669 250.058L256.518 259.395Z" fill="#8C2424"/>
<path fill-rule="evenodd" clip-rule="evenodd" d="M251.747 243.256L240.759 245.842L237.181 231.122L240.893 213.256L243.525 229.544L251.747 243.256Z" fill="#8C2424"/>
<path fill-rule="evenodd" clip-rule="evenodd" d="M212.297 201.94L226.996 201.251L230.399 211.76L216.446 213.924L204.734 212.444L185.855 199.436L187.582 195.549L202.081 200.284L212.297 201.94Z" fill="#E10000"/>
<path fill-rule="evenodd" clip-rule="evenodd" d="M208.348 150.521L205.757 156.053L213.217 161.246L210.841 151.92L208.348 150.521Z" fill="#620F12"/>
</svg>
